<svg width="64" height="64" viewBox="0 0 64 64" fill="none" xmlns="http://www.w3.org/2000/svg">
<path d="M30 33.9999H15.3334C14.7667 33.9999 14.2918 33.807 13.9087 33.4213C13.5252 33.0359 13.3334 32.5581 13.3334 31.9879C13.3334 31.4181 13.5252 30.9444 13.9087 30.5666C14.2918 30.1888 14.7667 29.9999 15.3334 29.9999H30V15.3333C30 14.7666 30.1929 14.2915 30.5787 13.9079C30.964 13.5248 31.4418 13.3333 32.012 13.3333C32.5818 13.3333 33.0556 13.5248 33.4334 13.9079C33.8112 14.2915 34 14.7666 34 15.3333V29.9999H48.6667C49.2334 29.9999 49.7085 30.1928 50.092 30.5786C50.4752 30.9639 50.6667 31.4417 50.6667 32.0119C50.6667 32.5817 50.4752 33.0555 50.092 33.4333C49.7085 33.811 49.2334 33.9999 48.6667 33.9999H34V48.6666C34 49.2333 33.8072 49.7081 33.4214 50.0913C33.036 50.4748 32.5583 50.6666 31.988 50.6666C31.4183 50.6666 30.9445 50.4748 30.5667 50.0913C30.1889 49.7081 30 49.2333 30 48.6666V33.9999Z" fill="#EFEFEF"/>
</svg>
