<svg width="64" height="64" viewBox="0 0 64 64" fill="none" xmlns="http://www.w3.org/2000/svg">
<path d="M34.1333 33.9999V23.3332C34.1333 22.7554 33.9444 22.2777 33.5667 21.8999C33.1889 21.5221 32.7111 21.3332 32.1333 21.3332C31.5556 21.3332 31.0778 21.5221 30.7 21.8999C30.3222 22.2777 30.1333 22.7554 30.1333 23.3332V34.7999C30.1333 35.0665 30.1778 35.311 30.2667 35.5332C30.3556 35.7554 30.5111 35.9777 30.7333 36.1999L38.6 44.0665C39 44.4665 39.4667 44.6665 40 44.6665C40.5333 44.6665 41 44.4665 41.4 44.0665C41.8 43.6665 42 43.1999 42 42.6665C42 42.1332 41.8 41.6665 41.4 41.2665L34.1333 33.9999ZM22.6333 56.6665C19.7222 55.4221 17.1889 53.7221 15.0333 51.5665C12.8778 49.411 11.1667 46.8777 9.9 43.9665C8.63334 41.0554 8 37.9332 8 34.5999C8 31.311 8.63334 28.211 9.9 25.2999C11.1667 22.3888 12.8778 19.8443 15.0333 17.6665C17.1889 15.4888 19.7222 13.7777 22.6333 12.5332C25.5444 11.2888 28.6444 10.6665 31.9333 10.6665C35.2222 10.6665 38.3222 11.2888 41.2333 12.5332C44.1444 13.7777 46.6889 15.4888 48.8667 17.6665C51.0444 19.8443 52.7556 22.3888 54 25.2999C55.2444 28.211 55.8667 31.311 55.8667 34.5999C55.8667 37.9332 55.2444 41.0554 54 43.9665C52.7556 46.8777 51.0444 49.411 48.8667 51.5665C46.6889 53.7221 44.1444 55.4221 41.2333 56.6665C38.3222 57.911 35.2222 58.5332 31.9333 58.5332C28.6444 58.5332 25.5444 57.911 22.6333 56.6665ZM4.73334 18.1332C4.33334 17.7332 4.14445 17.2665 4.16667 16.7332C4.18889 16.1999 4.4 15.7332 4.8 15.3332L12.8667 7.53321C13.2667 7.17766 13.7444 7.01099 14.3 7.03321C14.8556 7.05543 15.3111 7.24432 15.6667 7.59988C16.0667 7.99988 16.2556 8.46654 16.2333 8.99988C16.2111 9.53321 16 9.99988 15.6 10.3999L7.53334 18.1999C7.13334 18.5554 6.65556 18.7221 6.1 18.6999C5.54445 18.6777 5.08889 18.4888 4.73334 18.1332ZM59.1333 18.1332C58.7778 18.4888 58.3222 18.6777 57.7667 18.6999C57.2111 18.7221 56.7333 18.5554 56.3333 18.1999L48.2667 10.3999C47.8667 10.0443 47.6556 9.58877 47.6333 9.03321C47.6111 8.47766 47.8 7.99988 48.2 7.59988C48.5556 7.24432 49.0111 7.05543 49.5667 7.03321C50.1222 7.01099 50.6 7.17766 51 7.53321L59.0667 15.3332C59.4667 15.6888 59.6778 16.1443 59.7 16.6999C59.7222 17.2554 59.5333 17.7332 59.1333 18.1332ZM31.9333 54.5332C37.4889 54.5332 42.2 52.5999 46.0667 48.7332C49.9333 44.8665 51.8667 40.1554 51.8667 34.5999C51.8667 29.0443 49.9333 24.3332 46.0667 20.4665C42.2 16.5999 37.4889 14.6665 31.9333 14.6665C26.3778 14.6665 21.6667 16.5999 17.8 20.4665C13.9333 24.3332 12 29.0443 12 34.5999C12 40.1554 13.9333 44.8665 17.8 48.7332C21.6667 52.5999 26.3778 54.5332 31.9333 54.5332Z" fill="#EFEFEF"/>
</svg>
