<svg width="64" height="64" viewBox="0 0 64 64" fill="none" xmlns="http://www.w3.org/2000/svg">
<path d="M11.9333 52.0666C11.0888 51.2222 10.6666 50.1777 10.6666 48.9333C10.6666 47.6889 11.0888 46.6444 11.9333 45.8C12.7777 44.9555 13.8222 44.5333 15.0666 44.5333C16.3111 44.5333 17.3555 44.9555 18.2 45.8C19.0444 46.6444 19.4666 47.6889 19.4666 48.9333C19.4666 50.1777 19.0444 51.2222 18.2 52.0666C17.3555 52.9111 16.3111 53.3333 15.0666 53.3333C13.8222 53.3333 12.7777 52.9111 11.9333 52.0666ZM28.8666 52.0666C28.0222 51.2222 27.6 50.1777 27.6 48.9333C27.6 47.6889 28.0222 46.6444 28.8666 45.8C29.7111 44.9555 30.7555 44.5333 32 44.5333C33.2444 44.5333 34.2888 44.9555 35.1333 45.8C35.9777 46.6444 36.4 47.6889 36.4 48.9333C36.4 50.1777 35.9777 51.2222 35.1333 52.0666C34.2888 52.9111 33.2444 53.3333 32 53.3333C30.7555 53.3333 29.7111 52.9111 28.8666 52.0666ZM45.8 52.0666C44.9555 51.2222 44.5333 50.1777 44.5333 48.9333C44.5333 47.6889 44.9555 46.6444 45.8 45.8C46.6444 44.9555 47.6889 44.5333 48.9333 44.5333C50.1777 44.5333 51.2222 44.9555 52.0666 45.8C52.9111 46.6444 53.3333 47.6889 53.3333 48.9333C53.3333 50.1777 52.9111 51.2222 52.0666 52.0666C51.2222 52.9111 50.1777 53.3333 48.9333 53.3333C47.6889 53.3333 46.6444 52.9111 45.8 52.0666ZM11.9333 35.1333C11.0888 34.2888 10.6666 33.2444 10.6666 32C10.6666 30.7555 11.0888 29.7111 11.9333 28.8666C12.7777 28.0222 13.8222 27.6 15.0666 27.6C16.3111 27.6 17.3555 28.0222 18.2 28.8666C19.0444 29.7111 19.4666 30.7555 19.4666 32C19.4666 33.2444 19.0444 34.2888 18.2 35.1333C17.3555 35.9777 16.3111 36.4 15.0666 36.4C13.8222 36.4 12.7777 35.9777 11.9333 35.1333ZM28.8666 35.1333C28.0222 34.2888 27.6 33.2444 27.6 32C27.6 30.7555 28.0222 29.7111 28.8666 28.8666C29.7111 28.0222 30.7555 27.6 32 27.6C33.2444 27.6 34.2888 28.0222 35.1333 28.8666C35.9777 29.7111 36.4 30.7555 36.4 32C36.4 33.2444 35.9777 34.2888 35.1333 35.1333C34.2888 35.9777 33.2444 36.4 32 36.4C30.7555 36.4 29.7111 35.9777 28.8666 35.1333ZM45.8 35.1333C44.9555 34.2888 44.5333 33.2444 44.5333 32C44.5333 30.7555 44.9555 29.7111 45.8 28.8666C46.6444 28.0222 47.6889 27.6 48.9333 27.6C50.1777 27.6 51.2222 28.0222 52.0666 28.8666C52.9111 29.7111 53.3333 30.7555 53.3333 32C53.3333 33.2444 52.9111 34.2888 52.0666 35.1333C51.2222 35.9777 50.1777 36.4 48.9333 36.4C47.6889 36.4 46.6444 35.9777 45.8 35.1333ZM11.9333 18.2C11.0888 17.3555 10.6666 16.3111 10.6666 15.0666C10.6666 13.8222 11.0888 12.7777 11.9333 11.9333C12.7777 11.0888 13.8222 10.6666 15.0666 10.6666C16.3111 10.6666 17.3555 11.0888 18.2 11.9333C19.0444 12.7777 19.4666 13.8222 19.4666 15.0666C19.4666 16.3111 19.0444 17.3555 18.2 18.2C17.3555 19.0444 16.3111 19.4666 15.0666 19.4666C13.8222 19.4666 12.7777 19.0444 11.9333 18.2ZM28.8666 18.2C28.0222 17.3555 27.6 16.3111 27.6 15.0666C27.6 13.8222 28.0222 12.7777 28.8666 11.9333C29.7111 11.0888 30.7555 10.6666 32 10.6666C33.2444 10.6666 34.2888 11.0888 35.1333 11.9333C35.9777 12.7777 36.4 13.8222 36.4 15.0666C36.4 16.3111 35.9777 17.3555 35.1333 18.2C34.2888 19.0444 33.2444 19.4666 32 19.4666C30.7555 19.4666 29.7111 19.0444 28.8666 18.2ZM45.8 18.2C44.9555 17.3555 44.5333 16.3111 44.5333 15.0666C44.5333 13.8222 44.9555 12.7777 45.8 11.9333C46.6444 11.0888 47.6889 10.6666 48.9333 10.6666C50.1777 10.6666 51.2222 11.0888 52.0666 11.9333C52.9111 12.7777 53.3333 13.8222 53.3333 15.0666C53.3333 16.3111 52.9111 17.3555 52.0666 18.2C51.2222 19.0444 50.1777 19.4666 48.9333 19.4666C47.6889 19.4666 46.6444 19.0444 45.8 18.2Z" fill="#EFEFEF"/>
</svg>
