<svg width="64" height="64" viewBox="0 0 64 64" fill="none" xmlns="http://www.w3.org/2000/svg">
<path d="M34.3334 34.8L40.4 40.8666C40.8 41.2666 41.2667 41.4666 41.8 41.4666C42.3334 41.4666 42.8 41.2666 43.2 40.8666C43.6 40.4666 43.8 39.9888 43.8 39.4333C43.8 38.8777 43.6 38.4 43.2 38L37.1334 32L43.1334 26C43.5334 25.6 43.7334 25.1333 43.7334 24.6C43.7334 24.0666 43.5334 23.6 43.1334 23.2C42.7334 22.8 42.2556 22.6 41.7 22.6C41.1445 22.6 40.6667 22.8 40.2667 23.2L34.3334 29.2L28.2667 23.1333C27.8667 22.7333 27.4 22.5333 26.8667 22.5333C26.3334 22.5333 25.8667 22.7333 25.4667 23.1333C25.0667 23.5333 24.8667 24.0111 24.8667 24.5666C24.8667 25.1222 25.0667 25.6 25.4667 26L31.5334 32L25.4667 38C25.0667 38.4 24.8667 38.8666 24.8667 39.4C24.8667 39.9333 25.0667 40.4 25.4667 40.8C25.8667 41.2 26.3445 41.4 26.9 41.4C27.4556 41.4 27.9334 41.2 28.3334 40.8L34.3334 34.8ZM20.3334 53.3333C19.7 53.3333 19.1 53.1915 18.5334 52.908C17.9667 52.6249 17.5 52.2333 17.1334 51.7333L4.13337 34.4C3.60004 33.7031 3.33337 32.9066 3.33337 32.0106C3.33337 31.1146 3.60004 30.3111 4.13337 29.6L17.0667 12.2666C17.4334 11.7666 17.9 11.3748 18.4667 11.0913C19.0334 10.8082 19.6334 10.6666 20.2667 10.6666H51.7334C52.8334 10.6666 53.7751 11.0582 54.5587 11.8413C55.3418 12.6248 55.7334 13.5666 55.7334 14.6666V49.3333C55.7334 50.4333 55.3418 51.3748 54.5587 52.158C53.7751 52.9415 52.8334 53.3333 51.7334 53.3333H20.3334ZM20.3334 49.3333H51.7334V14.6666H20.3334L7.33337 32L20.3334 49.3333Z" fill="#EFEFEF"/>
</svg>
