<svg width="64" height="64" viewBox="0 0 64 64" fill="none" xmlns="http://www.w3.org/2000/svg">
<path d="M18.3332 34.0001L28.1332 43.8001C28.5332 44.2001 28.7221 44.6667 28.6999 45.2001C28.6777 45.7334 28.4666 46.2001 28.0666 46.6001C27.6666 47.0001 27.1999 47.2001 26.6666 47.2001C26.1332 47.2001 25.6666 47.0001 25.2666 46.6001L12.0666 33.4001C11.6666 33.0001 11.4666 32.5334 11.4666 32.0001C11.4666 31.4667 11.6666 31.0001 12.0666 30.6001L25.3332 17.3334C25.7332 16.9334 26.1999 16.7334 26.7332 16.7334C27.2666 16.7334 27.7332 16.9334 28.1332 17.3334C28.5332 17.7334 28.7332 18.2112 28.7332 18.7667C28.7332 19.3223 28.5332 19.8001 28.1332 20.2001L18.3332 30.0001H51.3999C51.9777 30.0001 52.4554 30.189 52.8332 30.5667C53.211 30.9445 53.3999 31.4223 53.3999 32.0001C53.3999 32.5778 53.211 33.0556 52.8332 33.4334C52.4554 33.8112 51.9777 34.0001 51.3999 34.0001H18.3332Z" fill="#EFEFEF"/>
</svg>
