<svg width="64" height="64" viewBox="0 0 64 64" fill="none" xmlns="http://www.w3.org/2000/svg">
<path d="M21.6 56.5666C18.3556 55.1666 15.5334 53.2666 13.1334 50.8666C10.7334 48.4666 8.83337 45.6444 7.43337 42.3999C6.03337 39.1555 5.33337 35.6888 5.33337 31.9999C5.33337 28.311 6.03337 24.8444 7.43337 21.5999C8.83337 18.3555 10.7334 15.5333 13.1334 13.1333C15.5334 10.7333 18.3556 8.83325 21.6 7.43325C24.8445 6.03325 28.3111 5.33325 32 5.33325C35.6889 5.33325 39.1556 6.03325 42.4 7.43325C45.6445 8.83325 48.4667 10.7333 50.8667 13.1333C53.2667 15.5333 55.1667 18.3555 56.5667 21.5999C57.9667 24.8444 58.6667 28.311 58.6667 31.9999C58.6667 35.6888 57.9667 39.1555 56.5667 42.3999C55.1667 45.6444 53.2667 48.4666 50.8667 50.8666C48.4667 53.2666 45.6445 55.1666 42.4 56.5666C39.1556 57.9666 35.6889 58.6666 32 58.6666C28.3111 58.6666 24.8445 57.9666 21.6 56.5666ZM32 54.6666C34.7116 54.6666 37.3229 54.211 39.834 53.2999C42.3447 52.3888 44.6 51.0666 46.6 49.3332L14.6667 17.3999C12.9778 19.4444 11.6667 21.7148 10.7334 24.2113C9.80004 26.7077 9.33337 29.3039 9.33337 31.9999C9.33337 38.3275 11.5292 43.6872 15.9207 48.0793C20.3127 52.4708 25.6725 54.6666 32 54.6666ZM49.2667 46.5999C50.9111 44.5999 52.2223 42.3446 53.2 39.8339C54.1778 37.3228 54.6667 34.7115 54.6667 31.9999C54.6667 25.6719 52.4709 20.3121 48.0794 15.9206C43.6878 11.529 38.328 9.33325 32 9.33325C29.304 9.33325 26.7078 9.79992 24.2114 10.7333C21.7149 11.6666 19.4445 12.9999 17.4 14.7333L49.2667 46.5999Z" fill="#EFEFEF"/>
</svg>
