<svg width="64" height="64" viewBox="0 0 64 64" fill="none" xmlns="http://www.w3.org/2000/svg">
<path d="M53 56C47.8444 56 42.5889 54.7556 37.2333 52.2667C31.8778 49.7778 26.9111 46.2444 22.3333 41.6667C17.7556 37.0889 14.2222 32.1222 11.7333 26.7667C9.24444 21.4111 8 16.1556 8 11C8 10.1556 8.28889 9.44444 8.86667 8.86667C9.44444 8.28889 10.1556 8 11 8H20.3333C20.9556 8 21.4889 8.22222 21.9333 8.66667C22.3778 9.11111 22.6889 9.66667 22.8667 10.3333L24.6667 18.7333C24.7556 19.3556 24.7444 19.9222 24.6333 20.4333C24.5222 20.9444 24.2889 21.3778 23.9333 21.7333L17.2667 28.4667C18.4222 30.4222 19.6444 32.2444 20.9333 33.9333C22.2222 35.6222 23.6444 37.2222 25.2 38.7333C26.8444 40.4222 28.5778 41.9667 30.4 43.3667C32.2222 44.7667 34.1333 46 36.1333 47.0667L42.4667 40.5333C42.9111 40.0444 43.4222 39.7111 44 39.5333C44.5778 39.3556 45.1556 39.3111 45.7333 39.4L53.6667 41.1333C54.3333 41.3111 54.8889 41.6667 55.3333 42.2C55.7778 42.7333 56 43.3333 56 44V53C56 53.8444 55.7111 54.5556 55.1333 55.1333C54.5556 55.7111 53.8444 56 53 56Z" fill="#EFEFEF"/>
</svg>
