<svg width="64" height="64" viewBox="0 0 64 64" fill="none" xmlns="http://www.w3.org/2000/svg">
<path d="M25.1999 41.8667L49.3999 17.6667C49.7999 17.2667 50.2777 17.0667 50.8332 17.0667C51.3888 17.0667 51.8666 17.2667 52.2666 17.6667C52.6666 18.0667 52.8666 18.5444 52.8666 19.1C52.8666 19.6555 52.6666 20.1333 52.2666 20.5333L26.5999 46.2C26.1999 46.6 25.7332 46.8 25.1999 46.8C24.6666 46.8 24.1999 46.6 23.7999 46.2L11.6666 34.0667C11.2666 33.6667 11.0777 33.1889 11.0999 32.6333C11.1221 32.0778 11.3332 31.6 11.7332 31.2C12.1332 30.8 12.611 30.6 13.1666 30.6C13.7221 30.6 14.1999 30.8 14.5999 31.2L25.1999 41.8667Z" fill="#EFEFEF"/>
</svg>
