<svg width="64" height="64" viewBox="0 0 64 64" fill="none" xmlns="http://www.w3.org/2000/svg">
<path d="M32 34.8001L18 48.8001C17.6 49.2001 17.1333 49.4001 16.6 49.4001C16.0666 49.4001 15.6 49.2001 15.2 48.8001C14.8 48.4001 14.6 47.9334 14.6 47.4001C14.6 46.8668 14.8 46.4001 15.2 46.0001L29.2 32.0001L15.2 18.0001C14.8 17.6001 14.6 17.1334 14.6 16.6001C14.6 16.0668 14.8 15.6001 15.2 15.2001C15.6 14.8001 16.0666 14.6001 16.6 14.6001C17.1333 14.6001 17.6 14.8001 18 15.2001L32 29.2001L46 15.2001C46.4 14.8001 46.8666 14.6001 47.4 14.6001C47.9333 14.6001 48.4 14.8001 48.8 15.2001C49.2 15.6001 49.4 16.0668 49.4 16.6001C49.4 17.1334 49.2 17.6001 48.8 18.0001L34.8 32.0001L48.8 46.0001C49.2 46.4001 49.4 46.8668 49.4 47.4001C49.4 47.9334 49.2 48.4001 48.8 48.8001C48.4 49.2001 47.9333 49.4001 47.4 49.4001C46.8666 49.4001 46.4 49.2001 46 48.8001L32 34.8001Z" fill="#EFEFEF"/>
</svg>
