<svg width="64" height="64" viewBox="0 0 64 64" fill="none" xmlns="http://www.w3.org/2000/svg">
<path d="M13 36.6666C12.3777 36.6666 11.8333 36.4333 11.3666 35.9666C10.9 35.5 10.6666 34.9555 10.6666 34.3333C10.6666 33.7111 10.9 33.1666 11.3666 32.7C11.8333 32.2333 12.3777 32 13 32H51C51.6222 32 52.1666 32.2333 52.6333 32.7C53.1 33.1666 53.3333 33.7111 53.3333 34.3333C53.3333 34.9555 53.1 35.5 52.6333 35.9666C52.1666 36.4333 51.6222 36.6666 51 36.6666H13ZM12.6666 28.6C12.0888 28.6 11.6111 28.4111 11.2333 28.0333C10.8555 27.6555 10.6666 27.1777 10.6666 26.6C10.6666 26.0222 10.8555 25.5444 11.2333 25.1666C11.6111 24.7888 12.0888 24.6 12.6666 24.6H51.3333C51.9111 24.6 52.3889 24.7888 52.7666 25.1666C53.1444 25.5444 53.3333 26.0222 53.3333 26.6C53.3333 27.1777 53.1444 27.6555 52.7666 28.0333C52.3889 28.4111 51.9111 28.6 51.3333 28.6H12.6666ZM30.5 58.1C30.1222 57.7222 29.9333 57.2444 29.9333 56.6666V48.1333L26.2 51.8C25.8 52.1555 25.3333 52.3444 24.8 52.3666C24.2666 52.3889 23.8 52.2 23.4 51.8C23 51.4 22.8 50.9333 22.8 50.4C22.8 49.8666 23 49.4 23.4 49L30.5333 41.9333C30.7555 41.7111 30.9777 41.5555 31.2 41.4666C31.4222 41.3777 31.6666 41.3333 31.9333 41.3333C32.2 41.3333 32.4444 41.3777 32.6666 41.4666C32.8888 41.5555 33.1111 41.7111 33.3333 41.9333L40.3333 49C40.6889 49.4 40.8777 49.8666 40.9 50.4C40.9222 50.9333 40.7333 51.4 40.3333 51.8C39.9333 52.2 39.4666 52.4 38.9333 52.4C38.4 52.4 37.9333 52.2 37.5333 51.8L33.9333 48.1333V56.6666C33.9333 57.2444 33.7444 57.7222 33.3666 58.1C32.9888 58.4777 32.5111 58.6666 31.9333 58.6666C31.3555 58.6666 30.8777 58.4777 30.5 58.1ZM31.2 19.8666C30.9777 19.7777 30.7555 19.6222 30.5333 19.4L23.4666 12.3333C23.1111 11.9777 22.9222 11.5222 22.9 10.9666C22.8777 10.4111 23.0666 9.93329 23.4666 9.53329C23.8666 9.13329 24.3333 8.93329 24.8666 8.93329C25.4 8.93329 25.8666 9.13329 26.2666 9.53329L29.8666 13.2V4.66663C29.8666 4.08885 30.0555 3.61107 30.4333 3.23329C30.8111 2.85551 31.2888 2.66663 31.8666 2.66663C32.4444 2.66663 32.9222 2.85551 33.3 3.23329C33.6777 3.61107 33.8666 4.08885 33.8666 4.66663V13.2L37.6 9.53329C38 9.17774 38.4666 8.98885 39 8.96663C39.5333 8.9444 40 9.13329 40.4 9.53329C40.8 9.93329 41 10.4 41 10.9333C41 11.4666 40.8 11.9333 40.4 12.3333L33.3333 19.4C33.1111 19.6222 32.8888 19.7777 32.6666 19.8666C32.4444 19.9555 32.2 20 31.9333 20C31.6666 20 31.4222 19.9555 31.2 19.8666Z" fill="#EFEFEF"/>
</svg>
