<svg width="64" height="64" viewBox="0 0 64 64" fill="none" xmlns="http://www.w3.org/2000/svg">
<path d="M11.8 45.1333C10.7 45.1333 9.75849 44.7416 8.97538 43.958C8.19183 43.1749 7.80005 42.2333 7.80005 41.1333V22.8667C7.80005 21.7667 8.19183 20.8249 8.97538 20.0413C9.75849 19.2582 10.7 18.8667 11.8 18.8667H51.8001C52.9001 18.8667 53.8418 19.2582 54.6254 20.0413C55.4085 20.8249 55.8001 21.7667 55.8001 22.8667V41.1333C55.8001 42.2333 55.4085 43.1749 54.6254 43.958C53.8418 44.7416 52.9001 45.1333 51.8001 45.1333H11.8ZM11.8 41.1333H51.8001V22.8667H11.8V41.1333ZM9.73338 12C9.20005 12 8.74449 11.8 8.36672 11.4C7.98894 11 7.80005 10.5222 7.80005 9.96667C7.80005 9.41111 7.99183 8.94444 8.37538 8.56667C8.75849 8.18889 9.23338 8 9.80005 8H53.8667C54.4001 8 54.8556 8.2 55.2334 8.6C55.6112 9 55.8001 9.47778 55.8001 10.0333C55.8001 10.5889 55.6085 11.0556 55.2254 11.4333C54.8418 11.8111 54.3667 12 53.8001 12H9.73338ZM9.73338 56C9.20005 56 8.74449 55.8 8.36672 55.4C7.98894 55 7.80005 54.5222 7.80005 53.9667C7.80005 53.4111 7.99183 52.9444 8.37538 52.5667C8.75849 52.1889 9.23338 52 9.80005 52H53.8667C54.4001 52 54.8556 52.2 55.2334 52.6C55.6112 53 55.8001 53.4778 55.8001 54.0333C55.8001 54.5889 55.6085 55.0556 55.2254 55.4333C54.8418 55.8111 54.3667 56 53.8001 56H9.73338Z" fill="#EFEFEF"/>
</svg>
