<svg width="64" height="64" viewBox="0 0 64 64" fill="none" xmlns="http://www.w3.org/2000/svg">
<path d="M12.3334 50.6667C11.2667 50.6667 10.3334 50.2667 9.53337 49.4667C8.73337 48.6667 8.33337 47.7333 8.33337 46.6667V19C7.7556 19 7.27782 18.8071 6.90004 18.4213C6.52226 18.036 6.33337 17.5582 6.33337 16.988C6.33337 16.4182 6.52515 15.9444 6.90871 15.5667C7.29182 15.1889 7.76671 15 8.33337 15H16.6667V13.9907C16.6667 13.4191 16.8585 12.9444 17.242 12.5667C17.6252 12.1889 18.1 12 18.6667 12H23.6667C24.2334 12 24.7085 12.1916 25.092 12.5747C25.4752 12.9582 25.6667 13.4333 25.6667 14V15H34C34.5667 15 35.0418 15.1929 35.4254 15.5787C35.8085 15.964 36 16.4418 36 17.012C36 17.5818 35.8085 18.0556 35.4254 18.4333C35.0418 18.8111 34.5667 19 34 19V46.6667C34 47.7333 33.6 48.6667 32.8 49.4667C32 50.2667 31.0667 50.6667 30 50.6667H12.3334ZM42 48.6667C41.4334 48.6667 40.9585 48.4738 40.5754 48.088C40.1918 47.7027 40 47.2249 40 46.6547C40 46.0849 40.1918 45.6111 40.5754 45.2333C40.9585 44.8556 41.4334 44.6667 42 44.6667H47.6667C48.2334 44.6667 48.7085 44.8596 49.092 45.2453C49.4752 45.6307 49.6667 46.1084 49.6667 46.6787C49.6667 47.2484 49.4752 47.7222 49.092 48.1C48.7085 48.4778 48.2334 48.6667 47.6667 48.6667H42ZM42 36.4C41.4334 36.4 40.9585 36.2071 40.5754 35.8213C40.1918 35.436 40 34.9582 40 34.388C40 33.8182 40.1918 33.3444 40.5754 32.9667C40.9585 32.5889 41.4334 32.4 42 32.4H53.6667C54.2334 32.4 54.7085 32.5929 55.092 32.9787C55.4752 33.364 55.6667 33.8418 55.6667 34.412C55.6667 34.9818 55.4752 35.4556 55.092 35.8333C54.7085 36.2111 54.2334 36.4 53.6667 36.4H42ZM42 24.1333C41.4334 24.1333 40.9585 23.9404 40.5754 23.5547C40.1918 23.1693 40 22.6916 40 22.1213C40 21.5516 40.1918 21.0778 40.5754 20.7C40.9585 20.3222 41.4334 20.1333 42 20.1333H56.6667C57.2334 20.1333 57.7085 20.3262 58.092 20.712C58.4751 21.0973 58.6667 21.5751 58.6667 22.1453C58.6667 22.7151 58.4751 23.1889 58.092 23.5667C57.7085 23.9444 57.2334 24.1333 56.6667 24.1333H42ZM12.3334 19V46.6667H30V19H12.3334Z" fill="#EFEFEF"/>
</svg>
