<svg width="64" height="64" viewBox="0 0 64 64" fill="none" xmlns="http://www.w3.org/2000/svg">
<path d="M17.4 56C16.3 56 15.3584 55.6082 14.5753 54.8247C13.7917 54.0416 13.4 53.1 13.4 52V14H12.6666C12.1 14 11.6251 13.8071 11.242 13.4213C10.8584 13.036 10.6666 12.5582 10.6666 11.988C10.6666 11.4182 10.8584 10.9444 11.242 10.5667C11.6251 10.1889 12.1 10 12.6666 10H23.2C23.2 9.42222 23.3917 8.94444 23.7753 8.56667C24.1584 8.18889 24.6333 8 25.2 8H38.8C39.3666 8 39.8417 8.19156 40.2253 8.57467C40.6084 8.95822 40.8 9.43333 40.8 10H51.3333C51.9 10 52.3751 10.1929 52.7586 10.5787C53.1417 10.964 53.3333 11.4418 53.3333 12.012C53.3333 12.5818 53.1417 13.0556 52.7586 13.4333C52.3751 13.8111 51.9 14 51.3333 14H50.6V52C50.6 53.1 50.2084 54.0416 49.4253 54.8247C48.6417 55.6082 47.7 56 46.6 56H17.4ZM46.6 14H17.4V52H46.6V14Z" fill="#EFEFEF"/>
</svg>
