<svg width="64" height="64" viewBox="0 0 64 64" fill="none" xmlns="http://www.w3.org/2000/svg">
<path d="M14.6666 58.6667C13.6 58.6667 12.6666 58.2667 11.8666 57.4667C11.0666 56.6667 10.6666 55.7334 10.6666 54.6667V9.33337C10.6666 8.26671 11.0666 7.33337 11.8666 6.53337C12.6666 5.73337 13.6 5.33337 14.6666 5.33337H37.0666C37.6195 5.33337 38.1466 5.44449 38.648 5.66671C39.1493 5.88893 39.5777 6.17782 39.9333 6.53337L52.1333 18.7334C52.4888 19.0889 52.7777 19.5174 53 20.0187C53.2222 20.52 53.3333 21.0472 53.3333 21.6V54.6667C53.3333 55.7334 52.9333 56.6667 52.1333 57.4667C51.3333 58.2667 50.4 58.6667 49.3333 58.6667H14.6666ZM36.7333 19.7334V9.33337H14.6666V54.6667H49.3333V21.7334H38.7333C38.1666 21.7334 37.6917 21.5416 37.3086 21.158C36.9251 20.7749 36.7333 20.3 36.7333 19.7334Z" fill="#EFEFEF"/>
</svg>
