<svg width="64" height="64" viewBox="0 0 64 64" fill="none" xmlns="http://www.w3.org/2000/svg">
<path d="M31.2666 40.1333C31.0444 40.0444 30.8222 39.8889 30.6 39.6667L17.4 26.4667C17 26.0667 16.8111 25.5889 16.8333 25.0333C16.8555 24.4778 17.0666 24 17.4666 23.6C17.8666 23.2 18.3444 23 18.9 23C19.4555 23 19.9333 23.2 20.3333 23.6L32 35.3333L43.7333 23.6C44.1333 23.2 44.6 23.0111 45.1333 23.0333C45.6666 23.0556 46.1333 23.2667 46.5333 23.6667C46.9333 24.0667 47.1333 24.5444 47.1333 25.1C47.1333 25.6556 46.9333 26.1333 46.5333 26.5333L33.4 39.6667C33.1777 39.8889 32.9555 40.0444 32.7333 40.1333C32.5111 40.2222 32.2666 40.2667 32 40.2667C31.7333 40.2667 31.4889 40.2222 31.2666 40.1333Z" fill="#EFEFEF"/>
</svg>
