<svg width="64" height="64" viewBox="0 0 64 64" fill="none" xmlns="http://www.w3.org/2000/svg">
<path d="M31.2666 42.2C31.0444 42.1111 30.8222 41.9555 30.6 41.7333L20.5333 31.6666C20.1333 31.2546 19.9444 30.7737 19.9666 30.224C19.9888 29.6746 20.1913 29.2 20.574 28.8C20.9913 28.4 21.4777 28.2 22.0333 28.2C22.5888 28.2 23.0666 28.4 23.4666 28.8L30 35.4V12.6666C30 12.1 30.1928 11.6248 30.5786 11.2413C30.964 10.8582 31.4417 10.6666 32.012 10.6666C32.5817 10.6666 33.0555 10.8582 33.4333 11.2413C33.8111 11.6248 34 12.1 34 12.6666V35.4L40.6 28.8C40.9911 28.4 41.4555 28.2111 41.9933 28.2333C42.5311 28.2555 43.0086 28.4666 43.426 28.8666C43.8086 29.2666 44 29.7444 44 30.3C44 30.8555 43.8 31.3333 43.4 31.7333L33.4 41.7333C33.1777 41.9555 32.9526 42.1111 32.7246 42.2C32.4962 42.2889 32.2517 42.3333 31.9913 42.3333C31.7304 42.3333 31.4888 42.2889 31.2666 42.2ZM14.6666 53.3333C13.6 53.3333 12.6666 52.9333 11.8666 52.1333C11.0666 51.3333 10.6666 50.4 10.6666 49.3333V41.8C10.6666 41.2333 10.8595 40.7582 11.2453 40.3746C11.6306 39.9915 12.1084 39.8 12.6786 39.8C13.2484 39.8 13.7222 39.9915 14.1 40.3746C14.4777 40.7582 14.6666 41.2333 14.6666 41.8V49.3333H49.3333V41.8C49.3333 41.2333 49.5262 40.7582 49.912 40.3746C50.2973 39.9915 50.7751 39.8 51.3453 39.8C51.9151 39.8 52.3889 39.9915 52.7666 40.3746C53.1444 40.7582 53.3333 41.2333 53.3333 41.8V49.3333C53.3333 50.4 52.9333 51.3333 52.1333 52.1333C51.3333 52.9333 50.4 53.3333 49.3333 53.3333H14.6666Z" fill="#EFEFEF"/>
</svg>
