<svg width="64" height="64" viewBox="0 0 64 64" fill="none" xmlns="http://www.w3.org/2000/svg">
<path d="M28.6667 48C28.1 48 27.6251 47.8071 27.242 47.4213C26.8584 47.036 26.6667 46.5582 26.6667 45.988C26.6667 45.4182 26.8584 44.9444 27.242 44.5667C27.6251 44.1889 28.1 44 28.6667 44H35.3333C35.9 44 36.3751 44.1929 36.7587 44.5787C37.1418 44.964 37.3333 45.4418 37.3333 46.012C37.3333 46.5818 37.1418 47.0556 36.7587 47.4333C36.3751 47.8111 35.9 48 35.3333 48H28.6667ZM18 34C17.4333 34 16.9584 33.8071 16.5753 33.4213C16.1918 33.036 16 32.5582 16 31.988C16 31.4182 16.1918 30.9444 16.5753 30.5667C16.9584 30.1889 17.4333 30 18 30H46C46.5667 30 47.0418 30.1929 47.4253 30.5787C47.8084 30.964 48 31.4418 48 32.012C48 32.5818 47.8084 33.0556 47.4253 33.4333C47.0418 33.8111 46.5667 34 46 34H18ZM10 20C9.43333 20 8.95844 19.8071 8.57533 19.4213C8.19178 19.036 8 18.5582 8 17.988C8 17.4182 8.19178 16.9444 8.57533 16.5667C8.95844 16.1889 9.43333 16 10 16H54C54.5667 16 55.0418 16.1929 55.4253 16.5787C55.8084 16.964 56 17.4418 56 18.012C56 18.5818 55.8084 19.0556 55.4253 19.4333C55.0418 19.8111 54.5667 20 54 20H10Z" fill="#EFEFEF"/>
</svg>
