<svg width="64" height="64" viewBox="0 0 64 64" fill="none" xmlns="http://www.w3.org/2000/svg">
<path d="M9.33337 53.3334C8.26671 53.3334 7.33337 52.9223 6.53337 52.1001C5.73337 51.2779 5.33337 50.3556 5.33337 49.3334V14.6667C5.33337 13.6445 5.73337 12.7223 6.53337 11.9001C7.33337 11.0779 8.26671 10.6667 9.33337 10.6667H26.4C26.9529 10.6667 27.48 10.7779 27.9814 11.0001C28.4827 11.2223 28.9132 11.5132 29.2727 11.8727L32.0667 14.6667H54.6667C55.6889 14.6667 56.6111 15.0779 57.4334 15.9001C58.2556 16.7223 58.6667 17.6445 58.6667 18.6667V49.3334C58.6667 50.3556 58.2556 51.2779 57.4334 52.1001C56.6111 52.9223 55.6889 53.3334 54.6667 53.3334H9.33337ZM9.33337 49.3334H54.6667V18.6667H30.4L26.4 14.6667H9.33337V49.3334Z" fill="#EFEFEF"/>
</svg>
