<svg width="64" height="64" viewBox="0 0 64 64" fill="none" xmlns="http://www.w3.org/2000/svg">
<path d="M14.3333 56C12.5111 56 10.9889 55.4667 9.76668 54.4C8.54446 53.3333 7.93335 52 7.93335 50.4C7.93335 49.2 8.26668 48.2333 8.93335 47.5C9.60002 46.7667 10.4667 46.4 11.5333 46.4C12.4667 46.4 13.2333 46.6667 13.8333 47.2C14.4333 47.7333 14.7333 48.4444 14.7333 49.3333C14.7333 49.8222 14.6333 50.2778 14.4333 50.7C14.2333 51.1222 13.9556 51.4667 13.6 51.7333C13.7778 51.8222 13.9667 51.8889 14.1667 51.9333C14.3667 51.9778 14.5778 52 14.8 52C15.3778 52 15.8667 51.7222 16.2667 51.1667C16.6667 50.6111 16.9556 49.8889 17.1333 49L21.7333 25.3333H15.3333C14.7556 25.3333 14.2778 25.1444 13.9 24.7667C13.5222 24.3889 13.3333 23.9111 13.3333 23.3333C13.3333 22.7556 13.5222 22.2778 13.9 21.9C14.2778 21.5222 14.7556 21.3333 15.3333 21.3333H22.4667L23.8667 14.2667C24.2667 12.2667 25.0667 10.7222 26.2667 9.63333C27.4667 8.54444 28.9556 8 30.7333 8C32.5556 8 34.0556 8.53333 35.2333 9.6C36.4111 10.6667 37 12 37 13.6C37 14.8 36.6667 15.7667 36 16.5C35.3333 17.2333 34.4667 17.6 33.4 17.6C32.5111 17.6 31.7556 17.3444 31.1333 16.8333C30.5111 16.3222 30.2 15.6444 30.2 14.8C30.2 14.3556 30.2889 13.9222 30.4667 13.5C30.6445 13.0778 30.8667 12.7333 31.1333 12.4667C31.0445 12.3778 30.9111 12.3 30.7333 12.2333C30.5556 12.1667 30.3778 12.1333 30.2 12.1333C29.6222 12.1333 29.1222 12.4 28.7 12.9333C28.2778 13.4667 27.9778 14.1556 27.8 15L26.6 21.3333H37.2C37.7778 21.3333 38.2556 21.5222 38.6333 21.9C39.0111 22.2778 39.2 22.7556 39.2 23.3333C39.2 23.9111 39.0111 24.3889 38.6333 24.7667C38.2556 25.1444 37.7778 25.3333 37.2 25.3333H36.0667L41.6 31.7333L46.8 25.3333H45.6C45.0222 25.3333 44.5445 25.1444 44.1667 24.7667C43.7889 24.3889 43.6 23.9111 43.6 23.3333C43.6 22.7556 43.7889 22.2778 44.1667 21.9C44.5445 21.5222 45.0222 21.3333 45.6 21.3333H54C54.5778 21.3333 55.0556 21.5222 55.4333 21.9C55.8111 22.2778 56 22.7556 56 23.3333C56 23.9111 55.8111 24.3889 55.4333 24.7667C55.0556 25.1444 54.5778 25.3333 54 25.3333H52.1333L44.1333 34.7333L52.1333 44H54C54.5778 44 55.0556 44.1889 55.4333 44.5667C55.8111 44.9444 56 45.4222 56 46C56 46.5778 55.8111 47.0556 55.4333 47.4333C55.0556 47.8111 54.5778 48 54 48H45.6C45.0222 48 44.5445 47.8111 44.1667 47.4333C43.7889 47.0556 43.6 46.5778 43.6 46C43.6 45.4222 43.7889 44.9444 44.1667 44.5667C44.5445 44.1889 45.0222 44 45.6 44H46.8L41.4667 37.8L36 44H37.2C37.7778 44 38.2556 44.1889 38.6333 44.5667C39.0111 44.9444 39.2 45.4222 39.2 46C39.2 46.5778 39.0111 47.0556 38.6333 47.4333C38.2556 47.8111 37.7778 48 37.2 48H28.8C28.2222 48 27.7445 47.8111 27.3667 47.4333C26.9889 47.0556 26.8 46.5778 26.8 46C26.8 45.4222 26.9889 44.9444 27.3667 44.5667C27.7445 44.1889 28.2222 44 28.8 44H30.7333L38.8 34.7333L30.7333 25.3333H25.8L21.0667 49.7333C20.7111 51.7333 19.9556 53.2778 18.8 54.3667C17.6445 55.4556 16.1556 56 14.3333 56Z" fill="#EFEFEF"/>
</svg>
