<svg width="64" height="64" viewBox="0 0 64 64" fill="none" xmlns="http://www.w3.org/2000/svg">
<path d="M32.022 57.3334C28.5131 57.3334 25.2266 56.6685 22.1626 55.3387C19.0982 54.009 16.4146 52.1932 14.112 49.8914C11.8093 47.5896 9.99263 44.9056 8.66196 41.8394C7.33174 38.7736 6.66663 35.4843 6.66663 31.9714C6.66663 28.4754 7.33151 25.1894 8.66129 22.1134C9.99107 19.0374 11.8068 16.3592 14.1086 14.0787C16.4104 11.7983 19.0944 9.99275 22.1606 8.66208C25.2264 7.33186 28.5157 6.66675 32.0286 6.66675C35.5246 6.66675 38.8106 7.33164 41.8866 8.66141C44.9626 9.99119 47.6408 11.7959 49.9213 14.0754C52.2017 16.355 54.0073 19.0356 55.338 22.1174C56.6682 25.1992 57.3333 28.4861 57.3333 31.9781C57.3333 35.487 56.6684 38.7734 55.3386 41.8374C54.0088 44.9019 52.2042 47.5812 49.9246 49.8754C47.6451 52.1701 44.9644 53.9867 41.8826 55.3254C38.8008 56.6641 35.514 57.3334 32.022 57.3334ZM32 54.3074C38.2253 54.3074 43.4995 52.135 47.8226 47.7901C52.1457 43.4447 54.3073 38.1814 54.3073 32.0001V31.4181C54.3073 31.2421 54.2988 31.0532 54.282 30.8514C54.0837 31.9896 53.5431 32.9392 52.66 33.7001C51.7773 34.4605 50.7213 34.8407 49.492 34.8407H43.4406C42.07 34.8407 40.9068 34.3634 39.9513 33.4087C38.9957 32.4541 38.518 31.2916 38.518 29.9214V27.4621H28.672V22.5421C28.672 21.1892 29.1497 20.029 30.1053 19.0614C31.0608 18.0943 32.224 17.6107 33.5946 17.6107H36.0566V15.5281C36.0566 14.5947 36.4206 13.6419 37.1486 12.6694C37.8771 11.6965 38.7215 11.159 39.682 11.0567C38.4855 10.6154 37.2495 10.2776 35.974 10.0434C34.6984 9.80964 33.3737 9.69275 32 9.69275C25.8186 9.69275 20.5553 11.8543 16.21 16.1774C11.8651 20.5005 9.69263 25.7747 9.69263 32.0001V32.3847C9.69263 32.5043 9.70107 32.6325 9.71796 32.7694H19.9233C22.6513 32.7694 24.9742 33.7283 26.892 35.6461C28.8102 37.5643 29.7693 39.8836 29.7693 42.6041V45.0767H22.3846V52.1281C23.8446 52.8325 25.3824 53.3719 26.998 53.7461C28.6135 54.1203 30.2808 54.3074 32 54.3074Z" fill="#EFEFEF"/>
</svg>
