<svg width="64" height="64" viewBox="0 0 64 64" fill="none" xmlns="http://www.w3.org/2000/svg">
<path d="M12 30C10.9 30 9.95844 29.6082 9.17533 28.8247C8.39178 28.0416 8 27.1 8 26V12C8 10.9 8.39178 9.95822 9.17533 9.17467C9.95844 8.39156 10.9 8 12 8H26C27.1 8 28.0418 8.39156 28.8253 9.17467C29.6084 9.95822 30 10.9 30 12V26C30 27.1 29.6084 28.0416 28.8253 28.8247C28.0418 29.6082 27.1 30 26 30H12ZM12 56C10.9 56 9.95844 55.6082 9.17533 54.8247C8.39178 54.0416 8 53.1 8 52V38C8 36.9 8.39178 35.9582 9.17533 35.1747C9.95844 34.3916 10.9 34 12 34H26C27.1 34 28.0418 34.3916 28.8253 35.1747C29.6084 35.9582 30 36.9 30 38V52C30 53.1 29.6084 54.0416 28.8253 54.8247C28.0418 55.6082 27.1 56 26 56H12ZM38 30C36.9 30 35.9584 29.6082 35.1753 28.8247C34.3918 28.0416 34 27.1 34 26V12C34 10.9 34.3918 9.95822 35.1753 9.17467C35.9584 8.39156 36.9 8 38 8H52C53.1 8 54.0418 8.39156 54.8253 9.17467C55.6084 9.95822 56 10.9 56 12V26C56 27.1 55.6084 28.0416 54.8253 28.8247C54.0418 29.6082 53.1 30 52 30H38ZM38 56C36.9 56 35.9584 55.6082 35.1753 54.8247C34.3918 54.0416 34 53.1 34 52V38C34 36.9 34.3918 35.9582 35.1753 35.1747C35.9584 34.3916 36.9 34 38 34H52C53.1 34 54.0418 34.3916 54.8253 35.1747C55.6084 35.9582 56 36.9 56 38V52C56 53.1 55.6084 54.0416 54.8253 54.8247C54.0418 55.6082 53.1 56 52 56H38ZM12 26H26V12H12V26ZM38 26H52V12H38V26ZM38 52H52V38H38V52ZM12 52H26V38H12V52Z" fill="#EFEFEF"/>
</svg>
