<svg width="64" height="64" viewBox="0 0 64 64" fill="none" xmlns="http://www.w3.org/2000/svg">
<path d="M31.8 56C25.4889 56 20.0778 53.8778 15.5667 49.6333C11.0556 45.3889 8.5556 40.1556 8.06671 33.9333C8.02227 33.4 8.18893 32.9333 8.56671 32.5333C8.94449 32.1333 9.42227 31.9333 10 31.9333C10.5334 31.9333 10.9889 32.1222 11.3667 32.5C11.7445 32.8778 11.9778 33.3556 12.0667 33.9333C12.5556 39.0444 14.6667 43.3333 18.4 46.8C22.1334 50.2667 26.6 52 31.8 52C37.4445 52 42.2223 50.0222 46.1334 46.0667C50.0445 42.1111 52 37.3111 52 31.6667C52 26.1556 50.0223 21.5 46.0667 17.7C42.1112 13.9 37.3556 12 31.8 12C28.7778 12 25.9445 12.6889 23.3 14.0667C20.6556 15.4444 18.3556 17.2667 16.4 19.5333H21.4C21.9778 19.5333 22.4556 19.7222 22.8334 20.1C23.2112 20.4778 23.4 20.9556 23.4 21.5333C23.4 22.1111 23.2112 22.5889 22.8334 22.9667C22.4556 23.3444 21.9778 23.5333 21.4 23.5333H11.4667C10.8889 23.5333 10.4112 23.3444 10.0334 22.9667C9.6556 22.5889 9.46671 22.1111 9.46671 21.5333V11.6667C9.46671 11.0889 9.6556 10.6111 10.0334 10.2333C10.4112 9.85556 10.8889 9.66667 11.4667 9.66667C12.0445 9.66667 12.5223 9.85556 12.9 10.2333C13.2778 10.6111 13.4667 11.0889 13.4667 11.6667V16.7333C15.7778 14.0222 18.5223 11.8889 21.7 10.3333C24.8778 8.77778 28.2445 8 31.8 8C35.1334 8 38.2667 8.62222 41.2 9.86667C44.1334 11.1111 46.7 12.8111 48.9 14.9667C51.1 17.1222 52.8334 19.6444 54.1 22.5333C55.3667 25.4222 56 28.5333 56 31.8667C56 35.2 55.3667 38.3333 54.1 41.2667C52.8334 44.2 51.1 46.7556 48.9 48.9333C46.7 51.1111 44.1334 52.8333 41.2 54.1C38.2667 55.3667 35.1334 56 31.8 56ZM34.0667 31.0667L41.7334 38.6C42.1334 39 42.3334 39.4778 42.3334 40.0333C42.3334 40.5889 42.1334 41.0667 41.7334 41.4667C41.3334 41.8667 40.8667 42.0667 40.3334 42.0667C39.8 42.0667 39.3334 41.8667 38.9334 41.4667L30.6667 33.3333C30.4445 33.1111 30.2889 32.8778 30.2 32.6333C30.1112 32.3889 30.0667 32.1333 30.0667 31.8667V20.4667C30.0667 19.8889 30.2556 19.4111 30.6334 19.0333C31.0112 18.6556 31.4889 18.4667 32.0667 18.4667C32.6445 18.4667 33.1223 18.6556 33.5 19.0333C33.8778 19.4111 34.0667 19.8889 34.0667 20.4667V31.0667Z" fill="#EFEFEF"/>
</svg>
