<svg width="64" height="64" viewBox="0 0 64 64" fill="none" xmlns="http://www.w3.org/2000/svg">
<path d="M14.6666 56C13.5666 56 12.6251 55.6082 11.842 54.8247C11.0584 54.0416 10.6666 53.1 10.6666 52V26C10.6666 25.3667 10.8084 24.7667 11.092 24.2C11.3751 23.6333 11.7666 23.1667 12.2666 22.8L29.6 9.8C30.2968 9.26667 31.0933 9 31.9893 9C32.8853 9 33.6889 9.26667 34.4 9.8L51.7333 22.8C52.2333 23.1667 52.6251 23.6333 52.9086 24.2C53.1917 24.7667 53.3333 25.3667 53.3333 26V52C53.3333 53.1 52.9417 54.0416 52.1586 54.8247C51.3751 55.6082 50.4333 56 49.3333 56H14.6666ZM14.6666 52H49.3333V25.7333L32 13.1333L14.6666 25.7333V52Z" fill="#EFEFEF"/>
</svg>
