<svg width="64" height="64" viewBox="0 0 64 64" fill="none" xmlns="http://www.w3.org/2000/svg">
<g clip-path="url(#clip0_325_51)">
<path d="M21.6193 57.67H43.335C45.3256 57.67 46.9543 56.0413 46.9543 54.0507V44.6768C46.9543 43.6996 46.5562 42.7947 45.9047 42.1071L36.0964 32.335L45.9047 22.5267C46.5562 21.8753 46.9543 20.9343 46.9543 19.9932V10.6193C46.9543 8.62868 45.3256 7 43.335 7H21.6193C19.6287 7 18 8.62868 18 10.6193V19.9932C18 20.9704 18.3981 21.8753 19.0496 22.5629L28.8579 32.335L19.0496 42.1433C18.3981 42.7947 18 43.7357 18 44.6768V54.0507C18 56.0413 19.6287 57.67 21.6193 57.67ZM21.6193 19.9932V12.4289C21.6193 11.4155 22.4155 10.6193 23.4289 10.6193H41.5254C42.5388 10.6193 43.335 11.4155 43.335 12.4289V19.9932L32.4771 30.8511L21.6193 19.9932Z" fill="#EFEFEF"/>
</g>
<defs>
<clipPath id="clip0_325_51">
<rect width="64" height="64" fill="white"/>
</clipPath>
</defs>
</svg>
