<svg width="64" height="64" viewBox="0 0 64 64" fill="none" xmlns="http://www.w3.org/2000/svg">
<g clip-path="url(#clip0_325_51)">
<path d="M22.4 54.4001H41.6C43.36 54.4001 44.8 52.9601 44.8 51.2001V42.9121C44.8 42.0481 44.448 41.2481 43.872 40.6401L35.2 32.0001L43.872 23.3281C44.448 22.7521 44.8 21.9201 44.8 21.0881V12.8001C44.8 11.0401 43.36 9.6001 41.6 9.6001H22.4C20.64 9.6001 19.2 11.0401 19.2 12.8001V21.0881C19.2 21.9521 19.552 22.7521 20.128 23.3601L28.8 32.0001L20.128 40.6721C19.552 41.2481 19.2 42.0801 19.2 42.9121V51.2001C19.2 52.9601 20.64 54.4001 22.4 54.4001ZM22.4 21.0881V14.4001C22.4 13.5041 23.104 12.8001 24 12.8001H40C40.896 12.8001 41.6 13.5041 41.6 14.4001V21.0881L32 30.6881L22.4 21.0881Z" fill="#EFEFEF"/>
</g>
<defs>
<clipPath id="clip0_325_51">
<rect width="64" height="64" fill="white"/>
</clipPath>
</defs>
</svg>
