<svg width="64" height="64" viewBox="0 0 64 64" fill="none" xmlns="http://www.w3.org/2000/svg">
<path d="M12 56C10.9333 56 10 55.6 9.2 54.8C8.4 54 8 53.0667 8 52V12C8 10.9333 8.4 10 9.2 9.2C10 8.4 10.9333 8 12 8H52C53.0667 8 54 8.4 54.8 9.2C55.6 10 56 10.9333 56 12V52C56 53.0667 55.6 54 54.8 54.8C54 55.6 53.0667 56 52 56H12ZM12 52H52V12H12V52ZM17.7333 45.5333H46.3333C46.7111 45.5333 46.9944 45.3556 47.1833 45C47.3722 44.6444 47.3556 44.2889 47.1333 43.9333L39.3333 33.5333C39.1111 33.2667 38.8444 33.1333 38.5333 33.1333C38.2222 33.1333 37.9556 33.2667 37.7333 33.5333L29.7333 43.8667L24.3333 36.4667C24.1111 36.2 23.8444 36.0667 23.5333 36.0667C23.2222 36.0667 22.9556 36.2 22.7333 36.4667L17 43.9333C16.7333 44.2889 16.6944 44.6444 16.8833 45C17.0722 45.3556 17.3556 45.5333 17.7333 45.5333Z" fill="#EFEFEF"/>
</svg>
