<svg width="64" height="64" viewBox="0 0 64 64" fill="none" xmlns="http://www.w3.org/2000/svg">
<path d="M9.33337 53.3333C8.26671 53.3333 7.33337 52.9333 6.53337 52.1333C5.73337 51.3333 5.33337 50.4 5.33337 49.3333V14.6666C5.33337 13.6 5.73337 12.6666 6.53337 11.8666C7.33337 11.0666 8.26671 10.6666 9.33337 10.6666H54.6667C55.7334 10.6666 56.6667 11.0666 57.4667 11.8666C58.2667 12.6666 58.6667 13.6 58.6667 14.6666V49.3333C58.6667 50.4 58.2667 51.3333 57.4667 52.1333C56.6667 52.9333 55.7334 53.3333 54.6667 53.3333H9.33337ZM54.6667 18.3333L33.0667 32.4666C32.8889 32.5555 32.7223 32.6333 32.5667 32.7C32.4111 32.7666 32.2223 32.8 32 32.8C31.7778 32.8 31.5889 32.7666 31.4334 32.7C31.2778 32.6333 31.1112 32.5555 30.9334 32.4666L9.33337 18.3333V49.3333H54.6667V18.3333ZM32 29.2L54.4 14.6666H9.66671L32 29.2ZM9.33337 18.8V16.1786V16.2273V14.6666V16.2V16.1393V18.8Z" fill="#EFEFEF"/>
</svg>
