<svg width="64" height="64" viewBox="0 0 64 64" fill="none" xmlns="http://www.w3.org/2000/svg">
<path d="M33.6334 44.7579C34.0112 44.3748 34.2 43.8999 34.2 43.3332V31.3333C34.2 30.7666 34.0072 30.2915 33.6214 29.9079C33.236 29.5248 32.7583 29.3333 32.188 29.3333C31.6183 29.3333 31.1445 29.5248 30.7667 29.9079C30.3889 30.2915 30.2 30.7666 30.2 31.3333V43.3332C30.2 43.8999 30.3929 44.3748 30.7787 44.7579C31.164 45.1415 31.6418 45.3332 32.212 45.3332C32.7818 45.3332 33.2556 45.1415 33.6334 44.7579ZM33.5667 23.7866C33.9889 23.3777 34.2 22.871 34.2 22.2666C34.2 21.6244 33.9894 21.0861 33.568 20.6519C33.1467 20.2173 32.6245 19.9999 32.0014 19.9999C31.3783 19.9999 30.8556 20.2173 30.4334 20.6519C30.0112 21.0861 29.8 21.6244 29.8 22.2666C29.8 22.871 30.0107 23.3777 30.432 23.7866C30.8534 24.1955 31.3756 24.3999 31.9987 24.3999C32.6218 24.3999 33.1445 24.1955 33.5667 23.7866ZM32.018 58.6666C28.3407 58.6666 24.8852 57.9666 21.6514 56.5666C18.4172 55.1666 15.5889 53.2555 13.1667 50.8332C10.7445 48.411 8.83337 45.5813 7.43337 42.3439C6.03337 39.1066 5.33337 35.6475 5.33337 31.9666C5.33337 28.2857 6.03337 24.8266 7.43337 21.5893C8.83337 18.3519 10.7445 15.5333 13.1667 13.1333C15.5889 10.7333 18.4187 8.83325 21.656 7.43325C24.8934 6.03325 28.3525 5.33325 32.0334 5.33325C35.7143 5.33325 39.1734 6.03325 42.4107 7.43325C45.648 8.83325 48.4667 10.7333 50.8667 13.1333C53.2667 15.5333 55.1667 18.3555 56.5667 21.5999C57.9667 24.8444 58.6667 28.305 58.6667 31.9819C58.6667 35.6593 57.9667 39.1148 56.5667 42.3486C55.1667 45.5828 53.2667 48.407 50.8667 50.8213C48.4667 53.235 45.6445 55.1461 42.4 56.5546C39.1556 57.9626 35.6949 58.6666 32.018 58.6666ZM32.0334 54.6666C38.3223 54.6666 43.6667 52.4555 48.0667 48.0332C52.4667 43.611 54.6667 38.2555 54.6667 31.9666C54.6667 25.6777 52.4709 20.3333 48.0794 15.9333C43.6878 11.5333 38.328 9.33325 32 9.33325C25.7334 9.33325 20.3889 11.529 15.9667 15.9206C11.5445 20.3121 9.33337 25.6719 9.33337 31.9999C9.33337 38.2666 11.5445 43.611 15.9667 48.0332C20.3889 52.4555 25.7445 54.6666 32.0334 54.6666Z" fill="#EFEFEF"/>
</svg>
