<svg width="64" height="64" viewBox="0 0 64 64" fill="none" xmlns="http://www.w3.org/2000/svg">
<path d="M44.2 38.6667V25.3333C44.2 24.8924 43.9889 24.5933 43.5667 24.436C43.1444 24.2787 42.7778 24.3556 42.4667 24.6667L36.5333 30.6C36.1333 31 35.9333 31.4667 35.9333 32C35.9333 32.5333 36.1333 33 36.5333 33.4L42.4667 39.3333C42.7778 39.6444 43.1444 39.7213 43.5667 39.564C43.9889 39.4067 44.2 39.1076 44.2 38.6667ZM12 56C10.9 56 9.95844 55.6082 9.17533 54.8247C8.39178 54.0416 8 53.1 8 52V12C8 10.9 8.39178 9.95822 9.17533 9.17467C9.95844 8.39156 10.9 8 12 8H52C53.1 8 54.0418 8.39156 54.8253 9.17467C55.6084 9.95822 56 10.9 56 12V52C56 53.1 55.6084 54.0416 54.8253 54.8247C54.0418 55.6082 53.1 56 52 56H12ZM25.8 52H52V12H25.8V52Z" fill="#EFEFEF"/>
</svg>
