<svg width="64" height="64" viewBox="0 0 64 64" fill="none" xmlns="http://www.w3.org/2000/svg">
<path d="M27.0666 31.9334L38.8666 43.7334C39.2666 44.1334 39.4555 44.6001 39.4333 45.1334C39.4111 45.6667 39.2 46.1334 38.8 46.5334C38.4 46.9334 37.9222 47.1334 37.3666 47.1334C36.8111 47.1334 36.3333 46.9334 35.9333 46.5334L22.7333 33.3334C22.5111 33.1112 22.3555 32.889 22.2666 32.6667C22.1777 32.4445 22.1333 32.2001 22.1333 31.9334C22.1333 31.6667 22.1777 31.4223 22.2666 31.2001C22.3555 30.9779 22.5111 30.7556 22.7333 30.5334L36 17.2667C36.4 16.8667 36.8777 16.6667 37.4333 16.6667C37.9889 16.6667 38.4666 16.8667 38.8666 17.2667C39.2666 17.6667 39.4666 18.1445 39.4666 18.7001C39.4666 19.2556 39.2666 19.7334 38.8666 20.1334L27.0666 31.9334Z" fill="#EFEFEF"/>
</svg>
