<svg width="64" height="64" viewBox="0 0 64 64" fill="none" xmlns="http://www.w3.org/2000/svg">
<path d="M35.1333 25.3333V38.6667C35.1333 39.1076 35.3444 39.4067 35.7667 39.564C36.1889 39.7213 36.5556 39.6444 36.8667 39.3333L42.8 33.4C43.2 33 43.4 32.5333 43.4 32C43.4 31.4667 43.2 31 42.8 30.6L36.8667 24.6667C36.5556 24.3556 36.1889 24.2787 35.7667 24.436C35.3444 24.5933 35.1333 24.8924 35.1333 25.3333ZM12 56C10.9 56 9.95844 55.6082 9.17533 54.8247C8.39178 54.0416 8 53.1 8 52V12C8 10.9 8.39178 9.95822 9.17533 9.17467C9.95844 8.39156 10.9 8 12 8H52C53.1 8 54.0418 8.39156 54.8253 9.17467C55.6084 9.95822 56 10.9 56 12V52C56 53.1 55.6084 54.0416 54.8253 54.8247C54.0418 55.6082 53.1 56 52 56H12ZM25.8 52H52V12H25.8V52Z" fill="#EFEFEF"/>
</svg>
