<svg width="64" height="64" viewBox="0 0 64 64" fill="none" xmlns="http://www.w3.org/2000/svg">
<path d="M10 48C9.43333 48 8.95844 47.8071 8.57533 47.4213C8.19178 47.036 8 46.5582 8 45.988C8 45.4182 8.19178 44.9444 8.57533 44.5667C8.95844 44.1889 9.43333 44 10 44H54C54.5667 44 55.0418 44.1929 55.4253 44.5787C55.8084 44.964 56 45.4418 56 46.012C56 46.5818 55.8084 47.0556 55.4253 47.4333C55.0418 47.8111 54.5667 48 54 48H10ZM10 34C9.43333 34 8.95844 33.8071 8.57533 33.4213C8.19178 33.036 8 32.5582 8 31.988C8 31.4182 8.19178 30.9444 8.57533 30.5667C8.95844 30.1889 9.43333 30 10 30H54C54.5667 30 55.0418 30.1929 55.4253 30.5787C55.8084 30.964 56 31.4418 56 32.012C56 32.5818 55.8084 33.0556 55.4253 33.4333C55.0418 33.8111 54.5667 34 54 34H10ZM10 20C9.43333 20 8.95844 19.8071 8.57533 19.4213C8.19178 19.036 8 18.5582 8 17.988C8 17.4182 8.19178 16.9444 8.57533 16.5667C8.95844 16.1889 9.43333 16 10 16H54C54.5667 16 55.0418 16.1929 55.4253 16.5787C55.8084 16.964 56 17.4418 56 18.012C56 18.5818 55.8084 19.0556 55.4253 19.4333C55.0418 19.8111 54.5667 20 54 20H10Z" fill="#EFEFEF"/>
</svg>
