<svg width="64" height="64" viewBox="0 0 64 64" fill="none" xmlns="http://www.w3.org/2000/svg">
<path d="M32.4666 53.3999C38.3777 48.0221 42.7444 43.1444 45.5666 38.7666C48.3889 34.3888 49.8 30.5333 49.8 27.1999C49.8 21.9555 48.1222 17.6666 44.7666 14.3333C41.4111 10.9999 37.3111 9.33325 32.4666 9.33325C27.6222 9.33325 23.5222 10.9999 20.1666 14.3333C16.8111 17.6666 15.1333 21.9555 15.1333 27.1999C15.1333 30.5333 16.5777 34.3888 19.4666 38.7666C22.3555 43.1444 26.6889 48.0221 32.4666 53.3999ZM31.0333 57.0999C30.5666 56.9444 30.1555 56.6888 29.8 56.3333C27.9333 54.6444 25.9111 52.6999 23.7333 50.4999C21.5555 48.2999 19.5333 45.9333 17.6666 43.3999C15.8 40.8666 14.2444 38.2221 13 35.4666C11.7555 32.711 11.1333 29.9555 11.1333 27.1999C11.1333 20.5333 13.2777 15.2221 17.5666 11.2666C21.8555 7.31103 26.8222 5.33325 32.4666 5.33325C38.1111 5.33325 43.0777 7.31103 47.3666 11.2666C51.6555 15.2221 53.8 20.5333 53.8 27.1999C53.8 29.9555 53.1777 32.711 51.9333 35.4666C50.6889 38.2221 49.1333 40.8666 47.2666 43.3999C45.4 45.9333 43.3777 48.2999 41.2 50.4999C39.0222 52.6999 37 54.6444 35.1333 56.3333C34.7777 56.6888 34.3666 56.9444 33.9 57.0999C33.4333 57.2555 32.9555 57.3333 32.4666 57.3333C31.9777 57.3333 31.5 57.2555 31.0333 57.0999ZM35.7666 29.9666C36.6777 29.0555 37.1333 27.9555 37.1333 26.6666C37.1333 25.3777 36.6777 24.2777 35.7666 23.3666C34.8555 22.4555 33.7555 21.9999 32.4666 21.9999C31.1777 21.9999 30.0777 22.4555 29.1666 23.3666C28.2555 24.2777 27.8 25.3777 27.8 26.6666C27.8 27.9555 28.2555 29.0555 29.1666 29.9666C30.0777 30.8777 31.1777 31.3333 32.4666 31.3333C33.7555 31.3333 34.8555 30.8777 35.7666 29.9666Z" fill="#EFEFEF"/>
</svg>
