<svg width="64" height="64" viewBox="0 0 64 64" fill="none" xmlns="http://www.w3.org/2000/svg">
<path d="M14.6666 58.6666C13.5666 58.6666 12.6251 58.2748 11.842 57.4913C11.0584 56.7082 10.6666 55.7666 10.6666 54.6666V25.7333C10.6666 24.6333 11.0584 23.6915 11.842 22.908C12.6251 22.1248 13.5666 21.7333 14.6666 21.7333H19.3333V15.3333C19.3333 11.8288 20.5691 8.84174 23.0406 6.37196C25.5117 3.90174 28.5006 2.66663 32.0073 2.66663C35.5135 2.66663 38.5 3.90174 40.9666 6.37196C43.4333 8.84174 44.6666 11.8288 44.6666 15.3333V21.7333H49.3333C50.4333 21.7333 51.3751 22.1248 52.1586 22.908C52.9417 23.6915 53.3333 24.6333 53.3333 25.7333V54.6666C53.3333 55.7666 52.9417 56.7082 52.1586 57.4913C51.3751 58.2748 50.4333 58.6666 49.3333 58.6666H14.6666ZM14.6666 54.6666H49.3333V25.7333H14.6666V54.6666ZM35.6333 43.8646C36.6333 42.8855 37.1333 41.7084 37.1333 40.3333C37.1333 39 36.6295 37.7888 35.622 36.7C34.6144 35.6111 33.4033 35.0666 31.9886 35.0666C30.574 35.0666 29.3666 35.6111 28.3666 36.7C27.3666 37.7888 26.8666 39.0111 26.8666 40.3666C26.8666 41.7222 27.3704 42.8889 28.378 43.8666C29.3855 44.8444 30.5966 45.3333 32.0113 45.3333C33.426 45.3333 34.6333 44.8437 35.6333 43.8646ZM23.3333 21.7333H40.6666V15.3333C40.6666 12.9257 39.8249 10.8795 38.1413 9.19463C36.4577 7.50929 34.4133 6.66663 32.008 6.66663C29.6026 6.66663 27.5555 7.50929 25.8666 9.19463C24.1777 10.8795 23.3333 12.9257 23.3333 15.3333V21.7333Z" fill="#EFEFEF"/>
</svg>
