<svg width="64" height="64" viewBox="0 0 64 64" fill="none" xmlns="http://www.w3.org/2000/svg">
<path d="M9.1333 53.3333C8.06663 53.3333 7.1333 52.9333 6.3333 52.1333C5.5333 51.3333 5.1333 50.4 5.1333 49.3333V14.6666C5.1333 13.6 5.5333 12.6666 6.3333 11.8666C7.1333 11.0666 8.06663 10.6666 9.1333 10.6666H54.4666C55.5333 10.6666 56.4666 11.0666 57.2666 11.8666C58.0666 12.6666 58.4666 13.6 58.4666 14.6666V49.3333C58.4666 50.4 58.0666 51.3333 57.2666 52.1333C56.4666 52.9333 55.5333 53.3333 54.4666 53.3333H9.1333ZM9.1333 30H21.5333V14.6666H9.1333V30ZM25.5333 30H38.0666V14.6666H25.5333V30ZM42.0666 30H54.4666V14.6666H42.0666V30ZM21.5333 49.3333V34H9.1333V49.3333H21.5333ZM25.5333 49.3333H38.0666V34H25.5333V49.3333ZM42.0666 49.3333H54.4666V34H42.0666V49.3333Z" fill="#EFEFEF"/>
</svg>
