<svg width="64" height="64" viewBox="0 0 64 64" fill="none" xmlns="http://www.w3.org/2000/svg">
<path d="M31.9907 53.3334C31.108 53.3334 30.3556 53.0192 29.7334 52.3908C29.1112 51.7623 28.8 51.0067 28.8 50.1241C28.8 49.2414 29.1143 48.489 29.7427 47.8667C30.3712 47.2445 31.1267 46.9334 32.0094 46.9334C32.892 46.9334 33.6445 47.2476 34.2667 47.8761C34.8889 48.5045 35.2 49.2601 35.2 50.1427C35.2 51.0254 34.8858 51.7779 34.2574 52.4001C33.6289 53.0223 32.8734 53.3334 31.9907 53.3334ZM31.9907 35.2001C31.108 35.2001 30.3556 34.8859 29.7334 34.2574C29.1112 33.629 28.8 32.8734 28.8 31.9907C28.8 31.1081 29.1143 30.3556 29.7427 29.7334C30.3712 29.1112 31.1267 28.8001 32.0094 28.8001C32.892 28.8001 33.6445 29.1143 34.2667 29.7428C34.8889 30.3712 35.2 31.1268 35.2 32.0094C35.2 32.8921 34.8858 33.6445 34.2574 34.2667C33.6289 34.889 32.8734 35.2001 31.9907 35.2001ZM31.9907 17.0667C31.108 17.0667 30.3556 16.7525 29.7334 16.1241C29.1112 15.4956 28.8 14.7401 28.8 13.8574C28.8 12.9747 29.1143 12.2223 29.7427 11.6001C30.3712 10.9779 31.1267 10.6667 32.0094 10.6667C32.892 10.6667 33.6445 10.981 34.2667 11.6094C34.8889 12.2379 35.2 12.9934 35.2 13.8761C35.2 14.7587 34.8858 15.5112 34.2574 16.1334C33.6289 16.7556 32.8734 17.0667 31.9907 17.0667Z" fill="#EFEFEF"/>
</svg>
