<svg width="64" height="64" viewBox="0 0 64 64" fill="none" xmlns="http://www.w3.org/2000/svg">
<path d="M9.33337 10.6666L13.2 18.6C13.5436 19.2844 14.0343 19.8222 14.672 20.2133C15.3103 20.6044 15.9974 20.8 16.7334 20.8C18.1778 20.8 19.2723 20.1897 20.0167 18.9693C20.7612 17.7488 20.8223 16.4924 20.2 15.2L18 10.6666H23.9334L27.8 18.6C28.1436 19.2844 28.6343 19.8222 29.272 20.2133C29.9103 20.6044 30.5974 20.8 31.3334 20.8C32.7778 20.8 33.8723 20.1897 34.6167 18.9693C35.3612 17.7488 35.4223 16.4924 34.8 15.2L32.6 10.6666H38.5334L42.4 18.6C42.7436 19.2844 43.2343 19.8222 43.872 20.2133C44.5103 20.6044 45.1974 20.8 45.9334 20.8C47.3778 20.8 48.4723 20.1897 49.2167 18.9693C49.9611 17.7488 50.0223 16.4924 49.4 15.2L47.2 10.6666H54.6667C55.7334 10.6666 56.6667 11.0666 57.4667 11.8666C58.2667 12.6666 58.6667 13.6 58.6667 14.6666V49.3333C58.6667 50.4 58.2667 51.3333 57.4667 52.1333C56.6667 52.9333 55.7334 53.3333 54.6667 53.3333H9.33337C8.26671 53.3333 7.33337 52.9333 6.53337 52.1333C5.73337 51.3333 5.33337 50.4 5.33337 49.3333V14.6666C5.33337 13.6 5.73337 12.6666 6.53337 11.8666C7.33337 11.0666 8.26671 10.6666 9.33337 10.6666ZM9.33337 24.8V49.3333H54.6667V24.8H9.33337Z" fill="#EFEFEF"/>
</svg>
