<svg width="64" height="64" viewBox="0 0 64 64" fill="none" xmlns="http://www.w3.org/2000/svg">
<path d="M12.6666 50.6666C12.0888 50.6666 11.6111 50.4777 11.2333 50.0999C10.8555 49.7221 10.6666 49.2444 10.6666 48.6666C10.6666 48.0888 10.8555 47.611 11.2333 47.2332C11.6111 46.8555 12.0888 46.6666 12.6666 46.6666H16V26.3999C16 22.6666 17.1 19.3221 19.3 16.3666C21.5 13.411 24.4 11.5555 28 10.7999V9.33325C28 8.22214 28.3888 7.2777 29.1666 6.49992C29.9444 5.72214 30.8888 5.33325 32 5.33325C33.1111 5.33325 34.0555 5.72214 34.8333 6.49992C35.6111 7.2777 36 8.22214 36 9.33325V10.7999C39.6 11.5555 42.5 13.411 44.7 16.3666C46.9 19.3221 48 22.6666 48 26.3999V46.6666H51.3333C51.9111 46.6666 52.3889 46.8555 52.7666 47.2332C53.1444 47.611 53.3333 48.0888 53.3333 48.6666C53.3333 49.2444 53.1444 49.7221 52.7666 50.0999C52.3889 50.4777 51.9111 50.6666 51.3333 50.6666H12.6666ZM32 58.6666C30.5333 58.6666 29.2777 58.1444 28.2333 57.0999C27.1888 56.0555 26.6666 54.7999 26.6666 53.3332H37.3333C37.3333 54.7999 36.8111 56.0555 35.7666 57.0999C34.7222 58.1444 33.4666 58.6666 32 58.6666Z" fill="#EFEFEF"/>
</svg>
