<svg width="64" height="64" viewBox="0 0 64 64" fill="none" xmlns="http://www.w3.org/2000/svg">
<path d="M12.6666 50.6667C12.1 50.6667 11.6251 50.4738 11.242 50.088C10.8584 49.7027 10.6666 49.2249 10.6666 48.6547C10.6666 48.0849 10.8584 47.6111 11.242 47.2334C11.6251 46.8556 12.1 46.6667 12.6666 46.6667H16V26.4C16 22.6667 17.1 19.3223 19.3 16.3667C21.5 13.4112 24.4 11.5556 28 10.8V9.33337C28 8.22226 28.3888 7.27782 29.1666 6.50004C29.9444 5.72226 30.8888 5.33337 32 5.33337C33.1111 5.33337 34.0555 5.72226 34.8333 6.50004C35.6111 7.27782 36 8.22226 36 9.33337V10.8C39.6 11.5556 42.5 13.4112 44.7 16.3667C46.9 19.3223 48 22.6667 48 26.4V46.6667H51.3333C51.9 46.6667 52.3751 46.8596 52.7586 47.2454C53.1417 47.6307 53.3333 48.1085 53.3333 48.6787C53.3333 49.2485 53.1417 49.7223 52.7586 50.1C52.3751 50.4778 51.9 50.6667 51.3333 50.6667H12.6666ZM32 58.6667C30.5333 58.6667 29.2777 58.1445 28.2333 57.1C27.1888 56.0556 26.6666 54.8 26.6666 53.3334H37.3333C37.3333 54.8 36.8111 56.0556 35.7666 57.1C34.7222 58.1445 33.4666 58.6667 32 58.6667ZM20 46.6667H44V26.4C44 23.0667 42.8333 20.2334 40.5 17.9C38.1666 15.5667 35.3333 14.4 32 14.4C28.6666 14.4 25.8333 15.5667 23.5 17.9C21.1666 20.2334 20 23.0667 20 26.4V46.6667Z" fill="#EFEFEF"/>
</svg>
