<svg width="64" height="64" viewBox="0 0 64 64" fill="none" xmlns="http://www.w3.org/2000/svg">
<path d="M41 50.6666C39.9 50.6666 38.9585 50.2748 38.1754 49.4912C37.3918 48.7081 37 47.7666 37 46.6666V17.3333C37 16.2333 37.3918 15.2915 38.1754 14.5079C38.9585 13.7248 39.9 13.3333 41 13.3333H44.6667C45.7667 13.3333 46.7085 13.7248 47.492 14.5079C48.2752 15.2915 48.6667 16.2333 48.6667 17.3333V46.6666C48.6667 47.7666 48.2752 48.7081 47.492 49.4912C46.7085 50.2748 45.7667 50.6666 44.6667 50.6666H41ZM19.3334 50.6666C18.2334 50.6666 17.2918 50.2748 16.5087 49.4912C15.7252 48.7081 15.3334 47.7666 15.3334 46.6666V17.3333C15.3334 16.2333 15.7252 15.2915 16.5087 14.5079C17.2918 13.7248 18.2334 13.3333 19.3334 13.3333H23C24.1 13.3333 25.0418 13.7248 25.8254 14.5079C26.6085 15.2915 27 16.2333 27 17.3333V46.6666C27 47.7666 26.6085 48.7081 25.8254 49.4912C25.0418 50.2748 24.1 50.6666 23 50.6666H19.3334Z" fill="#EFEFEF"/>
</svg>
