<svg width="64" height="64" viewBox="0 0 64 64" fill="none" xmlns="http://www.w3.org/2000/svg">
<path d="M24.8 29.1334C22.9333 27.2667 22 24.8667 22 21.9334C22 19 22.9333 16.6 24.8 14.7333C26.6666 12.8667 29.0666 11.9333 32 11.9333C34.9333 11.9333 37.3333 12.8667 39.2 14.7333C41.0666 16.6 42 19 42 21.9334C42 24.8667 41.0666 27.2667 39.2 29.1334C37.3333 31 34.9333 31.9334 32 31.9334C29.0666 31.9334 26.6666 31 24.8 29.1334ZM10.6666 49.3334V47.0667C10.6666 45.3778 11.0888 43.9333 11.9333 42.7334C12.7777 41.5334 13.8666 40.6222 15.2 40C18.1777 38.6667 21.0333 37.6667 23.7666 37C26.5 36.3334 29.2444 36 32 36C34.7555 36 37.4888 36.3445 40.2 37.0333C42.9111 37.7222 45.7555 38.7111 48.7333 40C50.1111 40.6222 51.2222 41.5334 52.0666 42.7334C52.9111 43.9333 53.3333 45.3778 53.3333 47.0667V49.3334C53.3333 50.4445 52.9444 51.3889 52.1666 52.1667C51.3889 52.9445 50.4444 53.3334 49.3333 53.3334H14.6666C13.5555 53.3334 12.6111 52.9445 11.8333 52.1667C11.0555 51.3889 10.6666 50.4445 10.6666 49.3334Z" fill="#EFEFEF"/>
</svg>
