<svg width="64" height="64" viewBox="0 0 64 64" fill="none" xmlns="http://www.w3.org/2000/svg">
<path d="M21.3334 46.8V16.8C21.3334 16.1778 21.5334 15.6889 21.9334 15.3334C22.3334 14.9778 22.8 14.8 23.3334 14.8C23.5112 14.8 23.6889 14.8223 23.8667 14.8667C24.0445 14.9112 24.2223 14.9778 24.4 15.0667L48 30.1334C48.3112 30.3556 48.5445 30.6 48.7 30.8667C48.8556 31.1334 48.9334 31.4445 48.9334 31.8C48.9334 32.1556 48.8556 32.4667 48.7 32.7334C48.5445 33 48.3112 33.2445 48 33.4667L24.4 48.5334C24.2223 48.6223 24.0445 48.6889 23.8667 48.7334C23.6889 48.7778 23.5112 48.8 23.3334 48.8C22.8 48.8 22.3334 48.6223 21.9334 48.2667C21.5334 47.9112 21.3334 47.4223 21.3334 46.8Z" fill="#EFEFEF"/>
</svg>
