<svg width="64" height="64" viewBox="0 0 64 64" fill="none" xmlns="http://www.w3.org/2000/svg">
<path d="M7.33337 52H56.6667C57.2445 52 57.7223 52.1889 58.1 52.5667C58.4778 52.9444 58.6667 53.4222 58.6667 54C58.6667 54.5778 58.4778 55.0556 58.1 55.4333C57.7223 55.8111 57.2445 56 56.6667 56H7.33337C6.7556 56 6.27782 55.8111 5.90004 55.4333C5.52226 55.0556 5.33337 54.5778 5.33337 54C5.33337 53.4222 5.52226 52.9444 5.90004 52.5667C6.27782 52.1889 6.7556 52 7.33337 52ZM52 44V9.33333C52 8.97778 52.1334 8.66667 52.4 8.4C52.6667 8.13333 52.9778 8 53.3334 8C53.6889 8 54 8.13333 54.2667 8.4C54.5334 8.66667 54.6667 8.97778 54.6667 9.33333V44C54.6667 44.3556 54.5334 44.6667 54.2667 44.9333C54 45.2 53.6889 45.3333 53.3334 45.3333C52.9778 45.3333 52.6667 45.2 52.4 44.9333C52.1334 44.6667 52 44.3556 52 44ZM19.4667 35.2667L16.2 43.8667C16.0223 44.3111 15.7445 44.6667 15.3667 44.9333C14.9889 45.2 14.5556 45.3333 14.0667 45.3333C13.2223 45.3333 12.5778 44.9889 12.1334 44.3C11.6889 43.6111 11.6223 42.8889 11.9334 42.1333L24.7334 9.6C24.9556 9.11111 25.2667 8.72222 25.6667 8.43333C26.0667 8.14444 26.5112 8 27 8H29C29.4889 8 29.9334 8.14444 30.3334 8.43333C30.7334 8.72222 31.0445 9.11111 31.2667 9.6L44.0667 42.2C44.3778 42.9556 44.3 43.6667 43.8334 44.3333C43.3667 45 42.7334 45.3333 41.9334 45.3333C41.4445 45.3333 41 45.2 40.6 44.9333C40.2 44.6667 39.9111 44.2889 39.7334 43.8L36.5334 35.2667H19.4667ZM21.0667 31.0667H34.9334L28.1334 13H27.8667L21.0667 31.0667Z" fill="#EFEFEF"/>
</svg>
