<svg width="64" height="64" viewBox="0 0 64 64" fill="none" xmlns="http://www.w3.org/2000/svg">
<path d="M27.8666 55.5999C22.9333 54.6666 18.8333 52.2444 15.5666 48.3332C12.3 44.4221 10.6666 39.8888 10.6666 34.7332C10.6666 31.5777 11.3333 28.5999 12.6666 25.7999C14 22.9999 15.8888 20.6221 18.3333 18.6666C18.6888 18.3999 19.1111 18.2777 19.6 18.2999C20.0888 18.3221 20.5111 18.511 20.8666 18.8666C21.3111 19.311 21.5111 19.8221 21.4666 20.3999C21.4222 20.9777 21.1333 21.4888 20.6 21.9332C18.7333 23.4888 17.2777 25.3888 16.2333 27.6332C15.1888 29.8777 14.6666 32.2443 14.6666 34.7332C14.6666 38.911 15.9555 42.5443 18.5333 45.6332C21.1111 48.7221 24.3777 50.711 28.3333 51.5999C28.8222 51.6888 29.2333 51.9332 29.5666 52.3332C29.9 52.7332 30.0666 53.1777 30.0666 53.6666C30.0666 54.2888 29.8444 54.7888 29.4 55.1666C28.9555 55.5443 28.4444 55.6888 27.8666 55.5999ZM36.2666 55.5999C35.6889 55.6888 35.1777 55.5443 34.7333 55.1666C34.2888 54.7888 34.0666 54.2888 34.0666 53.6666C34.0666 53.1777 34.2333 52.7332 34.5666 52.3332C34.9 51.9332 35.3111 51.6888 35.8 51.5999C39.8 50.711 43.0666 48.7221 45.6 45.6332C48.1333 42.5443 49.4 38.911 49.4 34.7332C49.4 29.8888 47.7222 25.7888 44.3666 22.4332C41.0111 19.0777 36.9111 17.3999 32.0666 17.3999H30.7333L33.3333 19.9999C33.6888 20.3555 33.8666 20.8221 33.8666 21.3999C33.8666 21.9777 33.6888 22.4443 33.3333 22.7999C32.9333 23.1999 32.4444 23.3999 31.8666 23.3999C31.2888 23.3999 30.8222 23.1999 30.4666 22.7999L24.4 16.7999C24.1777 16.5777 24.0222 16.3555 23.9333 16.1332C23.8444 15.911 23.8 15.6666 23.8 15.3999C23.8 15.1332 23.8444 14.8888 23.9333 14.6666C24.0222 14.4443 24.1777 14.2221 24.4 13.9999L30.4666 7.93324C30.8222 7.57768 31.2888 7.3999 31.8666 7.3999C32.4444 7.3999 32.9333 7.57768 33.3333 7.93324C33.6888 8.33324 33.8666 8.82212 33.8666 9.3999C33.8666 9.97768 33.6888 10.4443 33.3333 10.7999L30.7333 13.3999H32.0666C38.0222 13.3999 43.0666 15.4777 47.2 19.6332C51.3333 23.7888 53.4 28.8221 53.4 34.7332C53.4 39.8888 51.7777 44.4221 48.5333 48.3332C45.2888 52.2444 41.2 54.6666 36.2666 55.5999Z" fill="#EFEFEF"/>
</svg>
