<svg width="64" height="64" viewBox="0 0 64 64" fill="none" xmlns="http://www.w3.org/2000/svg">
<path d="M28.2 52.2C23.2667 51.2667 19.1667 48.8444 15.9 44.9333C12.6333 41.0222 11 36.4889 11 31.3333C11 28.1778 11.6667 25.2 13 22.4C14.3333 19.6 16.2222 17.2222 18.6667 15.2667C19.0222 15 19.4444 14.8778 19.9333 14.9C20.4222 14.9222 20.8444 15.1111 21.2 15.4667C21.6444 15.9111 21.8444 16.4222 21.8 17C21.7556 17.5778 21.4667 18.0889 20.9333 18.5333C19.0667 20.0889 17.6111 21.9889 16.5667 24.2333C15.5222 26.4778 15 28.8444 15 31.3333C15 35.5111 16.2889 39.1444 18.8667 42.2333C21.4444 45.3222 24.7111 47.3111 28.6667 48.2C29.1556 48.2889 29.5667 48.5333 29.9 48.9333C30.2333 49.3333 30.4 49.7778 30.4 50.2667C30.4 50.8889 30.1778 51.3889 29.7333 51.7667C29.2889 52.1444 28.7778 52.2889 28.2 52.2ZM36.6 52.2C36.0222 52.2889 35.5111 52.1444 35.0667 51.7667C34.6222 51.3889 34.4 50.8889 34.4 50.2667C34.4 49.7778 34.5667 49.3333 34.9 48.9333C35.2333 48.5333 35.6444 48.2889 36.1333 48.2C40.1333 47.3111 43.4 45.3222 45.9333 42.2333C48.4667 39.1444 49.7333 35.5111 49.7333 31.3333C49.7333 26.4889 48.0556 22.3889 44.7 19.0333C41.3444 15.6778 37.2444 14 32.4 14H31.0667L33.6667 16.6C34.0222 16.9556 34.2 17.4222 34.2 18C34.2 18.5778 34.0222 19.0444 33.6667 19.4C33.2667 19.8 32.7778 20 32.2 20C31.6222 20 31.1556 19.8 30.8 19.4L24.7333 13.4C24.5111 13.1778 24.3556 12.9556 24.2667 12.7333C24.1778 12.5111 24.1333 12.2667 24.1333 12C24.1333 11.7333 24.1778 11.4889 24.2667 11.2667C24.3556 11.0444 24.5111 10.8222 24.7333 10.6L30.8 4.53333C31.1556 4.17778 31.6222 4 32.2 4C32.7778 4 33.2667 4.17778 33.6667 4.53333C34.0222 4.93333 34.2 5.42222 34.2 6C34.2 6.57778 34.0222 7.04444 33.6667 7.4L31.0667 10H32.4C38.3556 10 43.4 12.0778 47.5333 16.2333C51.6667 20.3889 53.7333 25.4222 53.7333 31.3333C53.7333 36.4889 52.1111 41.0222 48.8667 44.9333C45.6222 48.8444 41.5333 51.2667 36.6 52.2Z" fill="#EFEFEF"/>
</svg>
