<svg width="64" height="64" viewBox="0 0 64 64" fill="none" xmlns="http://www.w3.org/2000/svg">
<path d="M35.3333 31.9334L23.5333 20.1334C23.1333 19.7334 22.9444 19.2667 22.9667 18.7334C22.9889 18.2001 23.2 17.7334 23.6 17.3334C24 16.9334 24.4778 16.7334 25.0333 16.7334C25.5889 16.7334 26.0667 16.9334 26.4667 17.3334L39.6667 30.5334C39.8889 30.7556 40.0444 30.9778 40.1333 31.2001C40.2222 31.4223 40.2667 31.6667 40.2667 31.9334C40.2667 32.2001 40.2222 32.4445 40.1333 32.6667C40.0444 32.889 39.8889 33.1112 39.6667 33.3334L26.4 46.6001C26 47.0001 25.5333 47.189 25 47.1667C24.4667 47.1445 24 46.9334 23.6 46.5334C23.2 46.1334 23 45.6556 23 45.1001C23 44.5445 23.2 44.0667 23.6 43.6667L35.3333 31.9334Z" fill="#EFEFEF"/>
</svg>
