<svg width="64" height="64" viewBox="0 0 64 64" fill="none" xmlns="http://www.w3.org/2000/svg">
<path d="M25.2 42.0667C20.3929 42.0667 16.3244 40.4 12.9947 37.0667C9.66489 33.7334 8 29.7111 8 25C8 20.2889 9.66667 16.2667 13 12.9334C16.3333 9.60002 20.3667 7.93335 25.1 7.93335C29.8333 7.93335 33.8556 9.60002 37.1667 12.9334C40.4778 16.2667 42.1333 20.2922 42.1333 25.01C42.1333 26.9145 41.8222 28.7556 41.2 30.5333C40.5778 32.3111 39.6444 33.9778 38.4 35.5334L54.5333 51.5334C54.9333 51.9138 55.1333 52.3978 55.1333 52.9854C55.1333 53.5729 54.9333 54.0667 54.5333 54.4667C54.1333 54.8667 53.6396 55.0667 53.052 55.0667C52.4644 55.0667 51.9804 54.8667 51.6 54.4667L35.5333 38.4C34.2 39.5556 32.6453 40.4556 30.8693 41.1C29.0933 41.7445 27.2036 42.0667 25.2 42.0667ZM25.1333 38.0667C28.7444 38.0667 31.814 36.7889 34.342 34.2334C36.8696 31.6778 38.1333 28.6 38.1333 25C38.1333 21.4 36.8696 18.3222 34.342 15.7667C31.814 13.2111 28.7444 11.9333 25.1333 11.9333C21.4853 11.9333 18.3844 13.2111 15.8307 15.7667C13.2769 18.3222 12 21.4 12 25C12 28.6 13.2769 31.6778 15.8307 34.2334C18.3844 36.7889 21.4853 38.0667 25.1333 38.0667Z" fill="#EFEFEF"/>
</svg>
