<svg width="64" height="64" viewBox="0 0 64 64" fill="none" xmlns="http://www.w3.org/2000/svg">
<path d="M45.7334 58.6667C43.6223 58.6667 41.8278 57.9278 40.35 56.45C38.8723 54.9723 38.1334 53.1778 38.1334 51.0667C38.1334 50.7111 38.2445 49.9556 38.4667 48.8L18.5334 37.1334C17.8098 37.904 16.9734 38.5078 16.024 38.9447C15.0747 39.3816 14.0445 39.6 12.9334 39.6C10.8223 39.6 9.02782 38.8667 7.55004 37.4C6.07226 35.9334 5.33337 34.1334 5.33337 32C5.33337 29.8667 6.07226 28.0667 7.55004 26.6C9.02782 25.1334 10.8223 24.4 12.9334 24.4C14 24.4 15 24.6067 15.9334 25.02C16.8667 25.4329 17.6889 26.004 18.4 26.7334L38.4667 15.2C38.3778 14.8445 38.3 14.4778 38.2334 14.1C38.1667 13.7223 38.1334 13.3334 38.1334 12.9334C38.1334 10.8223 38.8723 9.02782 40.35 7.55004C41.8278 6.07226 43.6223 5.33337 45.7334 5.33337C47.8445 5.33337 49.6389 6.07226 51.1167 7.55004C52.5945 9.02782 53.3334 10.8223 53.3334 12.9334C53.3334 15.0445 52.5945 16.8389 51.1167 18.3167C49.6389 19.7945 47.8445 20.5334 45.7334 20.5334C44.6992 20.5334 43.7294 20.3334 42.824 19.9334C41.9192 19.5334 41.1112 19 40.4 18.3334L20.1334 29.6C20.2667 29.9556 20.3667 30.3445 20.4334 30.7667C20.5 31.1889 20.5334 31.5889 20.5334 31.9667C20.5334 32.3445 20.5112 32.7 20.4667 33.0334C20.4223 33.3667 20.3556 33.7111 20.2667 34.0667L40.4667 45.6C41.1778 44.9334 41.9798 44.4111 42.8727 44.0334C43.766 43.6556 44.7232 43.4667 45.744 43.4667C47.8703 43.4667 49.6667 44.2056 51.1334 45.6834C52.6 47.1611 53.3334 48.9556 53.3334 51.0667C53.3334 53.1778 52.5945 54.9723 51.1167 56.45C49.6389 57.9278 47.8445 58.6667 45.7334 58.6667Z" fill="#EFEFEF"/>
</svg>
