<svg width="64" height="64" viewBox="0 0 64 64" fill="none" xmlns="http://www.w3.org/2000/svg">
<path d="M19.1 53.1C17.1666 51.1667 16.2 48.8 16.2 46C16.2 43.2 17.1666 40.8333 19.1 38.9C21.0333 36.9667 23.4 36 26.2 36C27.4444 36 28.5666 36.1778 29.5666 36.5333C30.5666 36.8889 31.4444 37.3778 32.2 38V10C32.2 9.42222 32.3888 8.94444 32.7666 8.56667C33.1444 8.18889 33.6222 8 34.2 8H45.8C46.3777 8 46.8555 8.18889 47.2333 8.56667C47.6111 8.94444 47.8 9.42222 47.8 10V15C47.8 15.5778 47.6111 16.0556 47.2333 16.4333C46.8555 16.8111 46.3777 17 45.8 17H36.2V46C36.2 48.8 35.2333 51.1667 33.3 53.1C31.3666 55.0333 29 56 26.2 56C23.4 56 21.0333 55.0333 19.1 53.1Z" fill="#EFEFEF"/>
</svg>
