<svg width="64" height="64" viewBox="0 0 64 64" fill="none" xmlns="http://www.w3.org/2000/svg">
<path d="M52.3333 58.8L5.19998 11.7333C4.79998 11.3333 4.59998 10.8556 4.59998 10.3C4.59998 9.74444 4.79998 9.26667 5.19998 8.86667C5.59998 8.46667 6.07775 8.26667 6.63331 8.26667C7.18886 8.26667 7.66664 8.46667 8.06664 8.86667L55.2 56C55.6 56.4 55.8 56.8667 55.8 57.4C55.8 57.9333 55.6 58.4 55.2 58.8C54.8 59.2 54.3222 59.4 53.7666 59.4C53.2111 59.4 52.7333 59.2 52.3333 58.8ZM36.4 17V26.7333C36.4 27.4 36.1889 27.8889 35.7666 28.2C35.3444 28.5111 34.8889 28.6667 34.4 28.6667C33.9111 28.6667 33.4555 28.5 33.0333 28.1667C32.6111 27.8333 32.4 27.3556 32.4 26.7333V10C32.4 9.42222 32.5889 8.94444 32.9666 8.56667C33.3444 8.18889 33.8222 8 34.4 8H46C46.5778 8 47.0555 8.18889 47.4333 8.56667C47.8111 8.94444 48 9.42222 48 10V15C48 15.5778 47.8111 16.0556 47.4333 16.4333C47.0555 16.8111 46.5778 17 46 17H36.4ZM26.4 56C23.6 56 21.2333 55.0333 19.3 53.1C17.3666 51.1667 16.4 48.8 16.4 46C16.4 43.2 17.3666 40.8333 19.3 38.9C21.2333 36.9667 23.6 36 26.4 36C27.6444 36 28.7666 36.1778 29.7666 36.5333C30.7666 36.8889 31.6444 37.3778 32.4 38V33.2L36.4 37.2V46C36.4 48.8 35.4333 51.1667 33.5 53.1C31.5666 55.0333 29.2 56 26.4 56Z" fill="#EFEFEF"/>
</svg>
