<svg width="64" height="64" viewBox="0 0 64 64" fill="none" xmlns="http://www.w3.org/2000/svg">
<path d="M32.0001 46.0667L19.6001 53.5333C19.2445 53.7556 18.8667 53.8556 18.4667 53.8333C18.0667 53.8111 17.7112 53.6889 17.4001 53.4667C17.0889 53.2445 16.8556 52.9556 16.7001 52.6C16.5445 52.2445 16.5112 51.8445 16.6001 51.4L19.8667 37.2667L8.93339 27.7333C8.57784 27.4222 8.36673 27.0778 8.30006 26.7C8.23339 26.3222 8.2445 25.9556 8.33339 25.6C8.42228 25.2445 8.62228 24.9445 8.93339 24.7C9.2445 24.4556 9.62228 24.3111 10.0667 24.2667L24.5334 23L30.1334 9.66667C30.3112 9.26667 30.5778 8.96667 30.9334 8.76667C31.2889 8.56667 31.6445 8.46667 32.0001 8.46667C32.3556 8.46667 32.7112 8.56667 33.0667 8.76667C33.4223 8.96667 33.6889 9.26667 33.8667 9.66667L39.4667 23L53.9334 24.2667C54.3778 24.3111 54.7556 24.4556 55.0667 24.7C55.3778 24.9445 55.5778 25.2445 55.6667 25.6C55.7556 25.9556 55.7667 26.3222 55.7001 26.7C55.6334 27.0778 55.4223 27.4222 55.0667 27.7333L44.1334 37.2667L47.4001 51.4C47.489 51.8445 47.4556 52.2445 47.3001 52.6C47.1445 52.9556 46.9112 53.2445 46.6001 53.4667C46.289 53.6889 45.9334 53.8111 45.5334 53.8333C45.1334 53.8556 44.7556 53.7556 44.4001 53.5333L32.0001 46.0667Z" fill="#EFEFEF"/>
</svg>
