<svg width="64" height="64" viewBox="0 0 64 64" fill="none" xmlns="http://www.w3.org/2000/svg">
<path d="M26 6.66675C25.4222 6.66675 24.9444 6.47786 24.5667 6.10008C24.1889 5.7223 24 5.24453 24 4.66675C24 4.08897 24.1889 3.61119 24.5667 3.23341C24.9444 2.85564 25.4222 2.66675 26 2.66675H38C38.5778 2.66675 39.0556 2.85564 39.4333 3.23341C39.8111 3.61119 40 4.08897 40 4.66675C40 5.24453 39.8111 5.7223 39.4333 6.10008C39.0556 6.47786 38.5778 6.66675 38 6.66675H26ZM33.4333 35.9001C33.8111 35.5223 34 35.0445 34 34.4667V23.1334C34 22.5556 33.8111 22.0779 33.4333 21.7001C33.0556 21.3223 32.5778 21.1334 32 21.1334C31.4222 21.1334 30.9444 21.3223 30.5667 21.7001C30.1889 22.0779 30 22.5556 30 23.1334V34.4667C30 35.0445 30.1889 35.5223 30.5667 35.9001C30.9444 36.2779 31.4222 36.4668 32 36.4668C32.5778 36.4668 33.0556 36.2779 33.4333 35.9001ZM22.7 56.7001C19.7889 55.4334 17.2444 53.7112 15.0667 51.5334C12.8889 49.3556 11.1667 46.8112 9.9 43.9001C8.63333 40.989 8 37.889 8 34.6001C8 31.3112 8.63333 28.2112 9.9 25.3001C11.1667 22.389 12.8889 19.8445 15.0667 17.6667C17.2444 15.489 19.7889 13.7667 22.7 12.5001C25.6111 11.2334 28.7111 10.6001 32 10.6001C34.9778 10.6001 37.7778 11.1001 40.4 12.1001C43.0222 13.1001 45.3556 14.489 47.4 16.2667L49.4 14.2667C49.8 13.8667 50.2667 13.6667 50.8 13.6667C51.3333 13.6667 51.8 13.8667 52.2 14.2667C52.6 14.6667 52.8 15.1334 52.8 15.6667C52.8 16.2001 52.6 16.6667 52.2 17.0667L50.2 19.0667C51.8 20.8445 53.1667 23.0001 54.3 25.5334C55.4333 28.0667 56 31.089 56 34.6001C56 37.889 55.3667 40.989 54.1 43.9001C52.8333 46.8112 51.1111 49.3556 48.9333 51.5334C46.7556 53.7112 44.2111 55.4334 41.3 56.7001C38.3889 57.9668 35.2889 58.6001 32 58.6001C28.7111 58.6001 25.6111 57.9668 22.7 56.7001ZM46.1667 48.7668C50.0556 44.8779 52 40.1556 52 34.6001C52 29.0445 50.0556 24.3223 46.1667 20.4334C42.2778 16.5445 37.5556 14.6001 32 14.6001C26.4444 14.6001 21.7222 16.5445 17.8333 20.4334C13.9444 24.3223 12 29.0445 12 34.6001C12 40.1556 13.9444 44.8779 17.8333 48.7668C21.7222 52.6556 26.4444 54.6001 32 54.6001C37.5556 54.6001 42.2778 52.6556 46.1667 48.7668Z" fill="#EFEFEF"/>
</svg>
