<svg width="64" height="64" viewBox="0 0 64 64" fill="none" xmlns="http://www.w3.org/2000/svg">
<path d="M33.4333 44.8247C33.8111 44.4416 34 43.9667 34 43.4V32L38.4 36.4C38.7476 36.7556 39.19 36.9333 39.7273 36.9333C40.2647 36.9333 40.7111 36.7587 41.0667 36.4093C41.4222 36.0604 41.6 35.616 41.6 35.076C41.6 34.5364 41.4222 34.0889 41.0667 33.7333L33.4 26.0667C33 25.6667 32.5333 25.4667 32 25.4667C31.4667 25.4667 31 25.6667 30.6 26.0667L22.9333 33.7333C22.5778 34.0809 22.4 34.5233 22.4 35.0607C22.4 35.598 22.5747 36.0444 22.924 36.4C23.2729 36.7556 23.7173 36.9333 24.2573 36.9333C24.7969 36.9333 25.2444 36.7556 25.6 36.4L30 32V43.4C30 43.9667 30.1929 44.4416 30.5787 44.8247C30.964 45.2082 31.4418 45.4 32.012 45.4C32.5818 45.4 33.0556 45.2082 33.4333 44.8247ZM12 19.0667V52H52V19.0667H12ZM12 56C10.9 56 9.95844 55.6082 9.17533 54.8247C8.39178 54.0416 8 53.1 8 52V16.7333C8 16.2942 8.06667 15.8707 8.2 15.4627C8.33333 15.0547 8.53333 14.6782 8.8 14.3333L12.2667 9.6C12.6222 9.11111 13.0876 8.72222 13.6627 8.43333C14.2378 8.14444 14.8391 8 15.4667 8H48.4667C49.0942 8 49.6956 8.14444 50.2707 8.43333C50.8458 8.72222 51.3111 9.11111 51.6667 9.6L55.2 14.3333C55.4667 14.6782 55.6667 15.0547 55.8 15.4627C55.9333 15.8707 56 16.2942 56 16.7333V52C56 53.1 55.6084 54.0416 54.8253 54.8247C54.0418 55.6082 53.1 56 52 56H12ZM13.1333 15.0667H50.8L48.3727 12H15.5333L13.1333 15.0667Z" fill="#EFEFEF"/>
</svg>
