<svg width="64" height="64" viewBox="0 0 64 64" fill="none" xmlns="http://www.w3.org/2000/svg">
<path d="M32 27.0666L20.2667 38.8C19.8667 39.2 19.4 39.3889 18.8667 39.3666C18.3334 39.3444 17.8667 39.1333 17.4667 38.7333C17.0667 38.3333 16.8667 37.8555 16.8667 37.3C16.8667 36.7444 17.0667 36.2666 17.4667 35.8666L30.6 22.7333C31 22.3333 31.4667 22.1333 32 22.1333C32.5334 22.1333 33 22.3333 33.4 22.7333L46.6 35.9333C47 36.3333 47.2 36.8 47.2 37.3333C47.2 37.8666 47 38.3333 46.6 38.7333C46.2 39.1333 45.7223 39.3333 45.1667 39.3333C44.6111 39.3333 44.1334 39.1333 43.7334 38.7333L32 27.0666Z" fill="#EFEFEF"/>
</svg>
