<svg width="64" height="64" viewBox="0 0 64 64" fill="none" xmlns="http://www.w3.org/2000/svg">
<path d="M20.0667 56C18.9667 56 18.0251 55.6082 17.242 54.8247C16.4584 54.0416 16.0667 53.1 16.0667 52V12C16.0667 10.9 16.4584 9.95822 17.242 9.17467C18.0251 8.39156 18.9667 8 20.0667 8H44C45.1 8 46.0418 8.39156 46.8253 9.17467C47.6084 9.95822 48 10.9 48 12V52C48 53.1 47.6084 54.0416 46.8253 54.8247C46.0418 55.6082 45.1 56 44 56H20.0667ZM44 52V12H20.0667V52H44ZM33.3333 20.7333C33.7333 20.3333 33.9333 19.8667 33.9333 19.3333C33.9333 18.8 33.7333 18.3333 33.3333 17.9333C32.9333 17.5333 32.4667 17.3333 31.9333 17.3333C31.4 17.3333 30.9333 17.5333 30.5333 17.9333C30.1333 18.3333 29.9333 18.8 29.9333 19.3333C29.9333 19.8667 30.1333 20.3333 30.5333 20.7333C30.9333 21.1333 31.4 21.3333 31.9333 21.3333C32.4667 21.3333 32.9333 21.1333 33.3333 20.7333ZM0 37.6667V26.3333C0 25.7667 0.192889 25.2916 0.578667 24.908C0.964 24.5249 1.44178 24.3333 2.012 24.3333C2.58178 24.3333 3.05556 24.5249 3.43333 24.908C3.81111 25.2916 4 25.7667 4 26.3333V37.6667C4 38.2333 3.80711 38.7082 3.42133 39.0913C3.036 39.4749 2.55822 39.6667 1.988 39.6667C1.41822 39.6667 0.944444 39.4749 0.566667 39.0913C0.188889 38.7082 0 38.2333 0 37.6667ZM8 43.5333V20.4667C8 19.9 8.19289 19.4249 8.57867 19.0413C8.964 18.6582 9.44178 18.4667 10.012 18.4667C10.5818 18.4667 11.0556 18.6582 11.4333 19.0413C11.8111 19.4249 12 19.9 12 20.4667V43.5333C12 44.1 11.8071 44.5749 11.4213 44.958C11.036 45.3416 10.5582 45.5333 9.988 45.5333C9.41822 45.5333 8.94444 45.3416 8.56667 44.958C8.18889 44.5749 8 44.1 8 43.5333ZM60 37.6667V26.3333C60 25.7667 60.1929 25.2916 60.5787 24.908C60.964 24.5249 61.4418 24.3333 62.012 24.3333C62.5818 24.3333 63.0556 24.5249 63.4333 24.908C63.8111 25.2916 64 25.7667 64 26.3333V37.6667C64 38.2333 63.8071 38.7082 63.4213 39.0913C63.036 39.4749 62.5582 39.6667 61.988 39.6667C61.4182 39.6667 60.9444 39.4749 60.5667 39.0913C60.1889 38.7082 60 38.2333 60 37.6667ZM52 43.5333V20.4667C52 19.9 52.1929 19.4249 52.5787 19.0413C52.964 18.6582 53.4418 18.4667 54.012 18.4667C54.5818 18.4667 55.0556 18.6582 55.4333 19.0413C55.8111 19.4249 56 19.9 56 20.4667V43.5333C56 44.1 55.8071 44.5749 55.4213 44.958C55.036 45.3416 54.5582 45.5333 53.988 45.5333C53.4182 45.5333 52.9444 45.3416 52.5667 44.958C52.1889 44.5749 52 44.1 52 43.5333Z" fill="#EFEFEF"/>
</svg>
